<svg xmlns="http://www.w3.org/2000/svg" width="922.092" height="922.075" viewBox="0 0 691.569 691.556"><g data-name="Слой 1"><path d="M683.099 349.834c0-188.176-152.692-340.722-341.05-340.722C153.693 9.112 1 161.658 1 349.834c0 188.177 152.692 340.722 341.05 340.722 188.357 0 341.049-152.545 341.049-340.722" fill="#fff"/><path d="M73.553 287.078a.04.04 0 0 0 .015.003c4.849 0 8.784-3.925 8.787-8.77-.004-4.84-3.935-8.762-8.778-8.762h-.018c-4.846 0-8.778 3.921-8.787 8.763.012 4.838 3.94 8.762 8.787 8.766m-.006 0zM618.016 287.078c0 .003.004.003.006.003 4.85 0 8.784-3.925 8.787-8.77-.009-4.84-3.94-8.762-8.787-8.762h-.009.003c-4.842 0-8.774 3.921-8.777 8.76 0 4.84 3.931 8.769 8.777 8.769" fill="#231f20"/><path d="M345.784 680.675c-185.276 0-335.543-150.123-335.543-335.234 0-185.083 150.267-335.206 335.553-335.206 185.267 0 335.525 150.114 335.525 335.221 0 185.105-150.258 335.219-335.538 335.219zm0-679.675C155.408 1.003 1.006 155.256 1.006 345.466c0 190.197 154.392 344.44 344.775 344.44 190.39 0 344.788-154.25 344.788-344.45S536.168 1.004 345.78 1.004m.003-.003z" fill="#231f20"/><path d="M345.784 559.873h-.009c-118.52 0-214.634-96.025-214.634-214.426 0-118.416 96.122-214.42 214.643-214.42 118.522 0 214.635 96.022 214.635 214.43 0 118.398-96.11 214.416-214.625 214.416zm0-434.015-.003.003c-121.357 0-219.772 98.321-219.772 219.562v.027c0 121.234 98.413 219.525 219.766 219.525h.022-.003c121.357 0 219.744-98.27 219.772-219.506 0-121.268-98.418-219.568-219.782-219.568m0-.043z" fill="#231f20"/><path d="m348.798 529.037-.251.129-.292-.129-146.354-62.279-.47-.202.065-.518 24.061-226.452.065-.625h61.006V215.85a65.552 65.552 0 0 1-.04-2.052 47.102 47.102 0 0 1 10.7-29.882 41.163 41.163 0 0 1 29.797-12.758c.687 0 1.38.021 2.065.049h72.105v54.985l19.154.003v12.77l51.02-.003.073.625 24.068 226.418.058.518-.488.202zm127.136-295.104h-50.523v-12.746h-19.154v-54.963l-77.144.003c-.7-.025-1.43-.046-2.142-.046a46.026 46.026 0 0 0-33.444 14.407 51.949 51.949 0 0 0-11.969 33.148c0 .696.019 1.414.043 2.103v18.09l-60.485.004-25.062 235.772 152.49 64.9 152.465-64.9z" fill="#231f20"/><path d="M420.409 264.818h-19.154v34.803l19.154-.003v8.922l49.534.003-6.448-60.681h-43.037v16.956m-.05 0zM233.57 247.847l-6.448 60.681 59.516-.003v-60.681z" fill="#33bdf2" fill-rule="evenodd"/><path d="M470.797 316.736h-50.348v21.224l-19.194-.003v29.382l-59.644.003v-50.606h-22.43v5.678c0 29.028-27.016 44.22-53.708 44.22h-2.67v-31.477l1.722.004c12.595 0 22.103-6.596 22.103-15.414v-3.01h-60.374l-15.33 144.244 137.623 58.566 137.58-58.556z" fill="#1c63b7" fill-rule="evenodd"/><path d="M341.61 308.525v-60.681l-22.428.003v60.681l22.42-.003m.009 0z" fill="#33bdf2" fill-rule="evenodd"/><path d="M336.648 233.933h-12.464v-17.848a11.612 11.612 0 0 1-.098-1.466c0-5.678 4.604-10.284 10.288-10.287l2.274-.003zm-2.28-34.577c-8.428.034-15.248 6.877-15.248 15.303 0 .488.025.978.071 1.46v22.836h22.41v-39.596z" fill="#231f20" fill-rule="evenodd"/><path d="M298.199 407.815a3.784 3.784 0 0 0-.326-.012 6.17 6.17 0 0 0-5.594 3.563 16.287 16.287 0 0 0-1.756 7.355l.003.337h-4.751a24.223 24.223 0 0 1-.043-1.33c0-3.624 1.114-7.166 3.186-10.14a11.213 11.213 0 0 1 9.047-4.584c.188 0 .378.007.565.012.098.004.206 0 .307 0 3.14 0 6.163 1.2 8.446 3.355a12.429 12.429 0 0 1 3.59 9.588 14.145 14.145 0 0 1-2.93 9.474 38.307 38.307 0 0 1-6.553 6.053 141.98 141.98 0 0 0-7.104 5.224 10.477 10.477 0 0 0-3.996 6.758h20.203v4.786H284.68a20.535 20.535 0 0 1 3.751-11.805 39.173 39.173 0 0 1 7.356-6.742 46.544 46.544 0 0 0 7.532-6.353 10.78 10.78 0 0 0 2.514-7.454c.003-.116.005-.236.005-.355a7.846 7.846 0 0 0-2.283-5.531 7.485 7.485 0 0 0-5.3-2.199h-.089m.034 0zM330.543 407.815a6.688 6.688 0 0 0-7.074 6.57c-.638 3.846-1 7.767-1.037 11.667a76.817 76.817 0 0 0 1.025 11.557 6.718 6.718 0 0 0 7.084 6.622c.138.006.276.013.414.013a6.696 6.696 0 0 0 6.7-6.632c.604-3.818.945-7.73.994-11.597a78.933 78.933 0 0 0-.997-11.66c-.062-3.64-3.036-6.555-6.679-6.555-.141 0-.282.006-.423.012zm0 41.227a10.123 10.123 0 0 1-11.199-7.782 62.055 62.055 0 0 1-1.967-15.168 61.898 61.898 0 0 1 1.964-15.346 10.106 10.106 0 0 1 11.209-7.717 10.034 10.034 0 0 1 11.193 7.72 64.773 64.773 0 0 1 1.902 15.343 63.792 63.792 0 0 1-1.909 15.168 10.046 10.046 0 0 1-11.19 7.782m-.003 0zM367.222 403.02v45.243h-5.398v-32.491h-10.202v-4.342c.101 0 .208.003.313.003 2.412 0 4.794-.558 6.954-1.625a8.385 8.385 0 0 0 4.015-6.748h4.318m0-.04zM383.991 432.874h13.277V410.64l-.123-.003zm17.862-29.854v29.854h4.386v4.802h-4.386v10.548h-4.585v-10.548h-17.273v-5.54l17.865-29.116z" fill="#fff"/><path d="m320.652 53.219 3.735-.26 1.722 26.405-3.726.236.058.981 11.985-.812-.074-.976-3.725.252-1.732-26.39 3.736-.236-.059-.99-11.994.812.065.981m.009-.003zM442.546 68.35l4.06 1.37-6.018 18.244h-.065l-7.055-23.649-8.65-2.873-.315.95 3.474 1.145-8.308 25.148-3.493-1.16-.31.927 8.787 2.897.316-.926-4.152-1.404 8.032-24.231h.073l9.395 31.5.764.05 8.713-26.301 3.474 1.159.316-.933-8.713-2.888-.31.942m-.015.033zM194.001 94.4l3.247-1.883 13.252 22.926-3.247 1.873.488.813 10.401-6.013-.488-.813-3.247 1.874-13.243-22.907 3.247-1.867-.494-.859-10.4 6.013.493.812m-.009.03zM604.666 207.941l2.087 3.78-16.868 9.288v-.064l10.89-22.147-4.41-7.966-.86.488 1.777 3.195-23.168 12.792-1.778-3.195-.859.469 4.484 8.113.813-.488-2.111-3.82 22.36-12.363v.074l-14.494 29.48.543.586 24.255-13.411 1.761 3.195.927-.478-4.44-8.015-.87.487m-.04 0zM543.131 128.529l2.689 2.385-8.219 9.193-9.226-8.242 8.21-9.192 2.664 2.434.675-.739-8.836-7.892-.65.693 2.786 2.49-17.647 19.724-2.786-2.49-.676.74 8.86 7.891.642-.714-2.67-2.435 8.772-9.79 9.216 8.266-8.771 9.8-2.67-2.435-.657.74 8.85 7.965.658-.745-2.793-2.49 17.638-19.706 2.793 2.49.665-.73-8.85-7.916-.658.754m-.009-.049zM104.412 178.703l2.007-2.968 10.208 6.905-6.942 10.238-10.186-6.915 2.007-2.968-.814-.552-6.641 9.8.813.567 2.096-3.106 21.926 14.83-2.096 3.092.813.552 6.65-9.8-.813-.561-2.013 2.977-10.91-7.368 6.942-10.228 10.88 7.364-1.999 2.978.814.542 6.641-9.799-.813-.552-2.096 3.09-21.926-14.82 2.103-3.107-.814-.543-6.65 9.8zM484.325 105.812l8.185-6.911h.065l-2.557 10.32zm13.9-12.313-.682-.414-22.477 19.022-2.867-1.711-.512.812 7.593 4.584.512-.812-3.566-2.159 7.105-6.157 6.325 3.82-2.256 9.08-3.532-2.144-.513.859 10.972 6.62.519-.853-3.152-1.883 6.561-28.637m-.03-.027zM132.386 169.026l-5.481-9.217.058-.058 9.745 4.225zm-9.851-15.738-.528.6 15.072 25.287-2.191 2.539.77.65 5.773-6.733-.755-.641-2.713 3.155-4.874-8.006 4.825-5.614 8.541 3.765-2.688 3.14.745.65 8.348-9.735-.746-.65-2.387 2.784-27.17-11.194m-.022.003zM155.926 121.609l3.247-2.824 12.295 13.93c3.152 3.577 4.637 6.401-.991 11.356-4.825 4.244-7.268 3.164-10.678-.69l-12.481-14.165 2.955-2.597-.65-.754-9.088 8.005.641.745 2.744-2.434 12.847 14.545c3.523 4.008 6.433 5.372 13.608-.95 7.007-6.15 5.896-9.484 2.28-13.555l-12.613-14.24 2.516-2.189-.656-.754-6.617 5.817zM87.634 205.522l1.982-3.82 17.092 8.922v.058L82.2 213.837l-4.214 8.074.884.469 1.688-3.244 23.49 12.17-1.687 3.243.868.47 4.254-8.203-.878-.463-2.013 3.904-22.668-11.762v-.074l32.627-4.243.172-.77-24.59-12.785 1.689-3.244-.878-.439-4.214 8.113.869.454m.034.015zM182.234 101.636l3.542-2.434 11.002 15.778h-.073l-23.166-8.518-7.479 5.21.562.812 3.014-2.1 15.121 21.708-3.014 2.085.562.812 7.584-5.273-.568-.813-3.606 2.508-14.618-20.954.064-.04 30.857 11.406.494-.585-15.828-22.714 3.005-2.094-.552-.813-7.529 5.215.562.813m.064-.01zM72.515 238.605l1.437-3.464 24.49 10.115-1.43 3.465.91.374 4.581-11.05-.909-.39-1.436 3.455-24.45-10.145 1.395-3.465-.902-.38-4.554 11.111.902.38m-.034-.006zM224.508 78.1l3.704-1.76 2.575 21.905h-.074l-14.95-16.064 3.711-1.753-.43-.877-10.938 5.16.43.883 2.946-1.395 20.357 21.239.814-.38-3.174-29.26 2.664-1.257-.423-.877-7.624 3.602.415.878m-.003-.044zM260.035 92.76l-5.684 1.962-4.247-12.17 2.037-.699c4.386-1.532 5.034-.364 6.715 4.324l1.13-.38-4.475-12.826-1.12.392c1.455 4.057 1.712 5.777-2.655 7.3l-2.038.721-4.06-11.623 1.826-.641c8.584-2.993 10.214-2.79 13.691 3.415l.976-.34-3.093-8.162-21.518 7.497.326.941 3.547-1.241 8.698 24.979-3.542 1.242.332.932 22.616-7.877-2.876-9.281-1.006.35c1.07 5.613.211 9.167-5.546 11.179m-.034.005zM565.557 194.239l-3.459-4.934 10.558-7.374 1.227 1.76c2.664 3.79 1.713 4.737-2.348 7.635l.69.975 11.126-7.779-.69-.975c-3.517 2.5-5.1 3.244-7.762-.567l-1.227-1.76 10.094-7.067 1.105 1.566c5.205 7.448 5.465 9.055.423 14.099l.577.812 7.031-5.167-13.074-18.657-.813.577 2.136 3.066-21.643 15.116-2.16-3.066-.814.56 13.73 19.609 8.162-5.274-.608-.877c-5.132 2.563-8.787 2.677-12.27-2.303m.009.025zM277.55 72.398l-2.704-11.544 2.023-.463c3.956-.926 5.766.901 6.61 4.495.746 3.173.228 6.083-3.247 6.88zm14.845 5.086c-1.737-6.052-3.661-6.426-9.64-5.761v-.08c3.63-1.34 6.188-3.326 5.132-7.812-1.308-5.614-5.018-5.85-9.947-4.697l-11.368 2.66.218.942 3.646-.812 6 25.758-3.621.813.211.966 11.546-2.686-.218-.951-3.483.813-3.06-12.98 2.437-.567c4.953-1.152 6.187.316 7.666 5.28 1.624 5.387 2.437 7.098 7.12 6.004l2.827-.666-.218-.95-.966.227c-2.373.561-3.143-1.386-4.297-5.442m.015-.059zM301.74 59.962a7.988 7.988 0 0 1-.018-.47 4.871 4.871 0 0 1 4.806-4.869c3.686-.493 6.252 1.355 7.805 5.743l1.046-.162-1.065-6.142a18.797 18.797 0 0 0-7.51-.717 8.219 8.219 0 0 0-7.875 8.996c1.308 9.735 16.242 4.948 17.254 12.534.504 3.78-2.491 5.915-5.772 6.353a8.72 8.72 0 0 1-9.324-7.438l-1.08.138 1.34 7.94a19.74 19.74 0 0 0 5.764.862c.985 0 1.977-.076 2.95-.223a9.23 9.23 0 0 0 8.688-9.87c-1.396-10.548-16.06-5.614-17.002-12.663m-.007-.012zM511.713 109.059a4.872 4.872 0 0 1 7.14-.552 7.014 7.014 0 0 1 2.862 5.65 7 7 0 0 1-1.19 3.907l.813.607 3.483-5.166a18.712 18.712 0 0 0-4.926-5.725 8.192 8.192 0 0 0-11.902 1.027c-5.806 7.917 8.275 14.813 3.745 20.988a5.834 5.834 0 0 1-4.548 2.186 5.814 5.814 0 0 1-4.02-1.613 8.661 8.661 0 0 1-1.575-11.792l-.884-.65-4.515 6.654a19.541 19.541 0 0 0 5.837 6.49 9.276 9.276 0 0 0 13.133-1.094c6.285-8.582-7.697-15.162-3.483-20.914m.03-.003zM407.555 58.76l3.647.876-6.114 25.716-3.637-.852-.236.956 11.693 2.76.227-.957-3.637-.868 6.114-25.724 3.63.867.228-.956-11.648-2.8-.236.95m-.03.032zM336.568 60.204h1.185c.218-3.701 1.777-7.846 5.886-7.813l3.42.058-.317 26.154-4.376-.04v.99l13.276.163v-1.005l-4.4-.05.325-26.178 3.428.05c4.06.048 5.56 4.224 5.684 7.934l1.19-.003.123-9.11-25.326-.29-.113 9.103m.015.037zM458.898 83.439l1.08.518c1.746-3.244 4.944-6.344 8.633-4.55l3.085 1.493-11.45 23.526-3.957-1.913-.414.892 11.945 5.801.439-.877-3.947-1.931 11.45-23.527 3.085 1.484c3.661 1.77 3.247 6.206 1.761 9.588l1.071.537 3.972-8.193-22.736-11.056-3.977 8.192m-.04.016zM603.171 222.226l.47 1.12c3.474-1.307 7.918-1.549 9.517 2.238l1.341 3.14-24.126 10.246-1.706-4.056-.908.38 5.19 12.17.902-.375-1.713-4.056 24.126-10.229 1.341 3.14c1.624 3.74-1.624 6.807-5.002 8.39l.478 1.087 8.382-3.553-9.882-23.275-8.404 3.538m-.006.095zM383.844 53.673l-.129.99 4.06.463-7.233 10.87-4.874-12.274 4.11.463.122-.981-12.678-1.454-.123.976 3.315.389 5.855 13.914-1.534 13.2-3.744-.44-.13.991 11.897 1.365.098-.966-3.63-.423 1.549-13.304 8.17-12.17 3.093.356.123-.975-8.363-.975m.046-.015zM569.099 153.815l4.929 5.639-.814.69-1.795-2.027-13.154-.089-4.46 19.933 1.348 1.533-.813.714-6.952-7.926.813-.714 1.624 1.889 4.011-16.597 16.582.147-2.16-2.435zm-29.03 8.453 19.813-17.33-2.486-2.83.814-.69 8.12 9.218-.813.69-2.437-2.79-19.814 17.369 2.437 2.765-.813.721-8.093-9.226.813-.714 2.437 2.814m.021.003zM366.531 609.903l3.695-.307 2.68 26.031-3.695.365.098.99 11.846-1.201-.088-.976-3.696.366-2.64-26.09 3.696-.365-.104-.99-11.914 1.205.089.975m.033-.003zM543.294 522.84l2.437-2.814 19.887 17.109-2.437 2.814.746.632 7.762-9.014-.73-.663-2.437 2.815-19.894-17.11 2.437-2.814-.746-.625-7.755 9.005.73.65m0 .015zM601.588 417.191l.942-3.593 25.415 6.561-.933 3.594.951.251 2.971-11.535-.942-.242-.933 3.594-25.415-6.546.933-3.585-.952-.242-2.98 11.52.934.235m.009-.012zM426.777 597.816l4.06-1.226 5.497 18.292h-.074l-19.187-15.22-8.68 2.588.292.95 3.474-1.04 7.544 25.149-3.483 1.04.276.931 8.826-2.649-.285-.95-4.15 1.248-7.307-24.222h.074l25.571 20.233.666-.374-7.918-26.332 3.483-1.04-.267-.94-8.704 2.596.286.95m.006.016zM178.444 551.493l2.744 2.272-7.796 9.42-9.452-7.838 7.78-9.41 2.753 2.272.616-.763-9.053-7.463-.632.745 2.866 2.36-16.727 20.216-2.85-2.376-.633.77 9.063 7.477.632-.763-2.762-2.263 8.308-10.044 9.468 7.797-8.308 10.063-2.743-2.263-.627.763 9.07 7.478.625-.744-2.857-2.37 16.711-20.234 2.867 2.376.617-.754-9.054-7.487zM86.774 405.096l.813 3.47-11.929 2.646-2.664-11.982 11.936-2.637.77 3.48.958-.218-2.535-11.464-.958.203.813 3.618-25.611 5.678-.813-3.633-.952.202 2.474 11.513.967-.211-.814-3.49 12.774-2.79 2.654 11.967-12.755 2.79-.813-3.47-.951.211 2.575 11.47.982-.25-.814-3.603 25.627-5.679.813 3.627.952-.211-2.55-11.48-.958.202m.01.04zM317.494 625.656l4.214-9.735h.04l2.28 10.303zm6.893-17.035-.77-.064-11.546 26.794-3.315-.285-.073.975 8.792.72.08-.974-4.125-.316 3.582-8.625 7.307.601 1.94 9.07-4.06-.35-.08.975 12.7 1.045.08-.975-3.637-.31-6.829-28.327m-.046.046zM186.58 577.957l8.372-6.54h.065l-2.925 10.124zm14.234-11.658-.656-.453-22.988 18.016-2.768-1.818-.537.812 7.356 4.87.538-.813-3.469-2.278 7.308-5.832 6.138 4.057-2.624 8.922-3.428-2.272-.537.813 10.622 6.984.543-.813-3.038-1.986 7.568-28.117m-.028-.091zM480.848 592.656l-2.038-10.425.065-.04 7.681 7.205zm-3.929-17.986-.681.38 5.595 28.662-2.891 1.622.479.859 7.657-4.363-.488-.859-3.588 2.051-1.89-9.143 6.383-3.609 6.73 6.384-3.572 2.027.488.852 11.037-6.295-.47-.812-3.167 1.793-21.625-19.534m.003-.015zM122.09 488.307l2.259 3.633-16.242 10.002-.049-.074 9.744-22.422-4.735-7.69-.813.512 1.89 3.09-22.355 13.743-1.89-3.106-.814.512 4.8 7.821.813-.518-2.28-3.707 21.585-13.254v.064l-12.992 29.895.578.542 23.41-14.398 1.9 3.106.813-.527-4.766-7.74-.813.513m-.043.003zM599.565 489.401l-2.995 5.16-11.086-6.408 1.08-1.842c2.3-3.968 3.548-3.514 7.845-1.089l.592-1.02-11.634-6.734-.592 1.015c3.725 2.125 5.026 3.244 2.718 7.205l-1.07 1.874-10.558-6.126.967-1.662c4.523-7.779 5.855-8.705 12.506-6.255l.519-.902-7.608-4.13-11.328 19.544.813.487 1.87-3.195 22.735 13.135-1.86 3.244.813.479 11.911-20.525-8.18-5.188-.527.926c4.46 3.53 6.083 6.767 3.06 12.007m.01 0zM150.129 531.44a4.82 4.82 0 0 1 7.083.565 6.907 6.907 0 0 1 2.023 4.881 6.89 6.89 0 0 1-1.876 4.728l.755.73 4.224-4.52a19.076 19.076 0 0 0-3.938-6.368 8.114 8.114 0 0 0-6.298-2.996 8.124 8.124 0 0 0-5.54 2.184c-6.893 6.87 5.832 15.793.44 21.156a5.773 5.773 0 0 1-3.898 1.517 5.742 5.742 0 0 1-4.573-2.265 8.602 8.602 0 0 1-2.222-5.77c0-2.263.89-4.437 2.48-6.05l-.755-.813-5.472 5.826a19.6 19.6 0 0 0 4.72 7.306 9.196 9.196 0 0 0 13.031.954c7.485-7.457-5.196-16.063-.178-21.037m-.006-.027zM227.96 583.188l3.192 1.621-5.53 10.904-10.948-5.587 5.53-10.894 3.177 1.622.448-.867-10.508-5.277-.44.868 3.315 1.686-11.865 23.406-3.296-1.695-.448.892 10.49 5.305.448-.877-3.176-1.622 5.905-11.642 10.938 5.54-5.887 11.618-3.182-1.622-.448.852 10.499 5.329.439-.892-3.306-1.671 11.865-23.398 3.306 1.68.439-.867-10.552-5.28-.439.867m.034 0zM452.913 588.12l3.247-1.41 4.816 11.229-11.27 4.826-4.874-11.22 3.248-1.404-.381-.892-10.81 4.633.381.883 3.419-1.444 10.346 24.084-3.41 1.478.38.893 10.81-4.633-.38-.893-3.29 1.405-5.132-11.992 11.279-4.82 5.147 11.983-3.248 1.404.38.883 10.816-4.624-.38-.892-3.41 1.453-10.37-24.102 3.419-1.46-.375-.892-10.824 4.624.399.907m.067-.006zM599.565 436.597a4.868 4.868 0 0 1-2.649-6.583c1.185-3.514 3.978-4.964 8.542-4.437l.325-.981-5.926-1.77a19.043 19.043 0 0 0-3.962 6.366 8.16 8.16 0 0 0 4.548 10.959c9.225 3.105 11.546-12.268 18.758-9.815a5.75 5.75 0 0 1 3.103 7.907 8.634 8.634 0 0 1-10.696 5.022l-.356 1.021 7.642 2.303a19.349 19.349 0 0 0 4.407-7.454 9.18 9.18 0 0 0-4.96-12.096c-9.995-3.381-12.058 11.811-18.757 9.558m-.019 0zM613.266 404.715l.211-1.168c-3.597-.813-7.42-2.986-6.706-7l.577-3.333 25.603 4.495-.756 4.274.967.154 2.28-12.98-.957-.17-.755 4.292-25.596-4.501.586-3.333c.69-3.974 5.033-4.753 8.689-4.299l.196-1.153-8.931-1.557-4.346 24.694 8.931 1.573m.007.012zM619.76 351.733v-1.202c-3.686-.098-7.845-1.493-7.934-5.556l-.073-3.391 25.985-.567.09 4.341h.981l-.282-13.208h-.982l.104 4.356-25.986.552-.073-3.39c-.09-4.057 4.02-5.68 7.69-5.9V326.6l-9.038.196.538 25.075 9.038-.178m-.058.04zM513.905 550.64l3.336-2.611 11.368 14.487c2.924 3.731 4.229 6.604-1.624 11.188-5.027 3.918-7.381 2.735-10.515-1.266l-11.555-14.764 3.07-2.434-.608-.77-9.46 7.414.602.764 2.858-2.232 11.89 15.137c3.246 4.16 6.064 5.678 13.518-.153 7.308-5.728 6.366-9.06 3.03-13.304L518.18 547.25l2.615-2.036-.593-.813-6.887 5.378.593.813m-.003.049zM534.848 531.432l3.06-2.978 13.34 13.654-.048.04-24.062-4.575-6.445 6.31.691.714 2.59-2.563 18.344 18.78-2.59 2.524.675.69 6.562-6.409-.682-.69-3.109 3.051-17.711-18.108.058-.04 32.06 6.101.414-.674-19.228-19.648 2.606-2.523-.69-.706-6.498 6.354.681.69m-.018.006zM610.749 324.257l-.374-3.716 26.13-2.637.365 3.701.966-.089-1.193-11.844-.983.122.365 3.683-26.099 2.621-.38-3.676-.976.098 1.203 11.835.967-.08m.009-.018zM563.593 496.88l2.372-3.303 12.724 17.857v.05l-20.673-6.807 2.379-3.293-.814-.577-7.03 9.735.813.552 1.884-2.622 27.852 8.745.512-.69-16.784-24.014 1.706-2.36-.813-.577-4.874 6.767.813.576m-.067-.04zM637.13 364.396l-.43 5.963-12.763-.94.153-2.126c.332-4.583 1.664-4.721 6.602-4.397l.089-1.183-13.424-.975-.098 1.153c4.272.285 5.95.745 5.604 5.329l-.154 2.11-12.181-.902.153-1.89c.651-8.97 1.455-10.39 8.517-11.09l.074-1.038-8.67-.356-1.664 22.505.976.064.261-3.691 26.188 1.931-.267 3.692.976.065 1.756-23.674-9.591-1.045-.09 1.045c5.562 1.248 8.438 3.416 7.993 9.459m-.01-.01zM83.37 472.495l-2.574-5.412 11.545-5.491.909 1.913c1.982 4.16.902 4.94-3.533 7.107l.52 1.055 12.18-5.792-.512-1.055c-3.84 1.874-5.506 2.303-7.504-1.843l-.918-1.922 11.037-5.274.813 1.711c3.888 8.113 3.888 9.735-1.885 13.865l.449.932 7.706-3.943-9.744-20.377-.884.414 1.623 3.357-23.742 11.271-1.624-3.333-.902.405L86.57 481.51l8.86-3.83-.464-.974c-5.423 1.686-9.023 1.202-11.628-4.244m.034.034zM597.917 461l-10.766-4.731.813-1.874c1.624-3.691 4.15-4.056 7.52-2.563 2.955 1.291 4.943 3.447 3.532 6.654zm12.863-8.788c-5.822-2.214-7.252-.901-10.297 4.21h-.074c1.09-3.667 1.047-6.886-3.142-8.705-5.24-2.302-7.643.488-9.665 5.087l-4.653 10.548.884.398 1.495-3.382 24.028 10.548-1.501 3.4.902.39 4.742-10.741-.903-.399-1.436 3.244-12.132-5.329 1.016-2.278c2.038-4.608 3.931-4.722 8.747-2.937 5.239 1.907 7.065 2.327 9.004-2.07l1.17-2.621-.893-.399-.4.892c-.975 2.199-2.98 1.671-6.892.148m0-.004zM246.23 604.006l4.06-11.025 1.934.72c3.8 1.37 4.312 3.87 3.039 7.3-1.096 3.058-3.103 5.176-6.409 3.953zm9.567 12.28c1.86-5.954.454-7.3-4.874-9.995v-.074c3.735.859 6.927.586 8.495-3.7 1.964-5.379-1.007-7.57-5.684-9.306l-10.849-3.974-.331.926 3.483 1.266-8.99 24.655-3.473-1.297-.332.926 11.018 4.056.347-.926-3.33-1.226 4.548-12.445 2.339.812c4.735 1.736 4.969 3.633 3.492 8.551-1.55 5.354-1.869 7.206 2.655 8.877l2.695.966.34-.926-.917-.332c-2.265-.812-1.86-2.863-.608-6.855m-.024.021zM76.818 372.218A4.803 4.803 0 0 1 82.06 377v.018c.454 3.667-1.43 6.19-5.773 7.674l.147 1.04 6.114-.99a18.831 18.831 0 0 0 .813-7.448 8.116 8.116 0 0 0-8.835-7.895c-9.665 1.177-5.107 16.039-12.645 16.97-3.76.44-5.831-2.563-6.221-5.791a11.475 11.475 0 0 1-.022-.647 8.593 8.593 0 0 1 7.486-8.518l-.129-1.064-7.9 1.227a19.392 19.392 0 0 0-.724 8.63c.203 4.894 4.235 8.758 9.137 8.758.202 0 .408-.007.607-.022 10.475-1.272 5.749-15.852 12.758-16.72m-.055-.005zM394.156 606.27l3.63-.764 5.353 25.685-3.621.754.196.956 11.66-2.434-.203-.966-3.63.813-5.402-25.7 3.646-.764-.203-.95-11.66 2.434.203.941m.031-.006zM269.78 599.787l3.572.976-6.952 25.286-3.581-.975-.252.95 11.481 3.14.261-.95-3.581-.997 6.942-25.286 3.587.99.261-.941-11.49-3.13-.252.94m.003-.003zM120.709 501.537l.706.957c3.013-2.11 7.218-3.44 9.695-.212l2.053 2.701-20.64 15.782-2.639-3.44-.813.6 7.998 10.456.813-.592-2.648-3.456 20.642-15.787 2.072 2.701c2.437 3.195.104 6.936-2.72 9.288l.73.94 7.17-5.485-15.265-19.969-7.154 5.485m0 .03zM73.27 311.56l-.089 1.178c3.637.447 7.658 2.263 7.308 6.31l-.267 3.391-25.912-2.036.35-4.342-.983-.064-1.04 13.135.976.074.331-4.357 25.922 2.051-.261 3.391c-.316 4.017-4.573 5.225-8.244 5.096l-.089 1.178 9.014.705 1.983-25.01zM97.11 436.265l2.438 6.985-.992.356-.893-2.548-12.092-4.915-11.423 16.72.69 1.897-1.015.365-3.478-9.84 1.007-.38.813 2.362 9.803-13.792 15.226 6.24-1.09-3.075zm-29.849-2.897 24.63-8.69-1.235-3.495 1.007-.365 4.06 11.465-.99.355-1.234-3.48-24.645 8.705 1.234 3.47-1.007.366-4.06-11.455.997-.374 1.243 3.504m0-.006zM59.116 359.861a5.376 5.376 0 0 1-4.054-2.539 9.271 9.271 0 0 1-1.145-4.056 6.413 6.413 0 0 1 1.494-4.894 7.81 7.81 0 0 1 4.19-2.02c2.268-.35 4.57-.552 6.862-.58a38.054 38.054 0 0 1 8.747.432 5.24 5.24 0 0 1 3.578 2.38 8.49 8.49 0 0 1 1.13 4.154 7.716 7.716 0 0 1-.81 3.952 5.456 5.456 0 0 1-3.023 2.567c-2.351.656-4.797.99-7.24.99l-.507-.003c-.868.04-1.758.07-2.636.07-2.197 0-4.407-.15-6.58-.44zm22.005-7.3c-.31-6.81-5.939-12.176-12.767-12.176-.593 0-1.191.043-1.777.123-.353-.03-.71-.046-1.065-.046-7.069 0-12.798 5.721-12.798 12.782v.135c.34 6.822 5.978 12.182 12.816 12.182.583 0 1.17-.04 1.743-.12.35.028.7.043 1.05.043 7.071 0 12.804-5.727 12.804-12.791v-.102m-.006-.03zM293.871 605.767l-4.603 25.497 3.419.626c1.09.205 2.197.313 3.305.313.39 0 .786-.016 1.172-.04a5.237 5.237 0 0 0 3.25-1.751 11.044 11.044 0 0 0 2.281-4.109 49.034 49.034 0 0 0 1.63-6.852c.319-1.399.488-2.837.488-4.272 0-1.217-.12-2.437-.356-3.63a5.735 5.735 0 0 0-2.49-3.7 15.63 15.63 0 0 0-4.612-1.43zm-9.271 24.636 4.613-25.464-3.567-.657.172-1.039 11.89 2.125a18.36 18.36 0 0 1 6.84 2.49 10.352 10.352 0 0 1 4.012 5.678 15.938 15.938 0 0 1 .577 8.113 14.943 14.943 0 0 1-3.588 7.512 11.962 11.962 0 0 1-5.831 3.814c-1.163.23-2.348.35-3.533.35-1.184 0-2.369-.12-3.532-.35l-11.792-2.125.178-1.04 3.558.627m.003-.034zM359.663 617.982l-1.258.04a16.498 16.498 0 0 0-.937-3.048 7.124 7.124 0 0 0-7.055-4.869 6.261 6.261 0 0 0-4.656 1.622 6.65 6.65 0 0 0-1.734 3.86 49.348 49.348 0 0 0-.233 4.759c0 .61.018 1.245.037 1.849.002.288-.007.591-.007.886 0 3.121.224 6.252.67 9.333a6.216 6.216 0 0 0 2.068 3.716 5.592 5.592 0 0 0 3.741 1.208h.025c1.074 0 2.13-.279 3.063-.81a3.306 3.306 0 0 0 1.672-2.277c.193-1.165.295-2.346.295-3.526 0-.31-.01-.623-.022-.93l-.021-1.542-3.873.065v-1.055l12.537-.227v1.055l-3.247.073a8.74 8.74 0 0 1-3.127 7.757 11.773 11.773 0 0 1-6.839 2.432l-.285.003c-3.348 0-6.497-1.56-8.526-4.222a15.977 15.977 0 0 1-3.68-10.18 15.795 15.795 0 0 1 3.36-10.403 11.072 11.072 0 0 1 8.815-4.5c2.468.018 4.853.88 6.765 2.434.641.487 1.129-.764 1.129-.764h1.111l.187 7.206m.025.055z" fill="#231f20"/></g></svg>