<svg xmlns="http://www.w3.org/2000/svg" width="727.715" height="273.012" viewBox="0 0 545.787 204.759"><g data-name="Слой 1"><path d="M320.171 90.841V46.563h11.688v44.278zm0-50.25V29.756h11.688v10.835zm-31.97 5.972h6.484v-3.341c0-11.516 6.38-13.466 20.756-13.04l.13 8.905c-6.385-.611-9.198-.919-9.198 4.32v3.156h8.787v9.214h-8.787v35.064h-11.688V55.777h-6.484zm-36.949 22.224c0 4.394 1.038 7.764 3.114 10.096 2.09 2.346 4.65 3.512 7.707 3.512 3.043 0 5.602-1.166 7.664-3.512 2.062-2.332 3.1-5.73 3.1-10.18 0-4.338-1.038-7.68-3.1-10.011-2.062-2.346-4.621-3.512-7.664-3.512-3.057 0-5.616 1.166-7.707 3.512-2.076 2.332-3.114 5.701-3.114 10.095zm-12.029-.625c0-3.896.953-7.664 2.872-11.304 1.92-3.655 4.636-6.428 8.148-8.347 3.512-1.92 7.422-2.886 11.759-2.886 6.697 0 12.171 2.175 16.451 6.526 4.28 4.365 6.413 9.854 6.413 16.508 0 6.712-2.161 12.271-6.47 16.68-4.322 4.407-9.754 6.61-16.309 6.61-4.052 0-7.92-.923-11.602-2.757-3.669-1.835-6.47-4.522-8.39-8.077-1.92-3.54-2.872-7.863-2.872-12.953zM222.061 90.84h-11.688V46.563l11.689-.021.02 7.202c3.138-5.005 8.112-8.747 16.278-8.12v11.153c-5.085-2.097-13.24-.08-14.836 5.676-.653 2.36-1.463 7.216-1.463 14.738zM168.57 40.079v17.404h6.725c4.849 0 8.077-.327 9.712-.967 1.635-.64 2.915-1.635 3.839-3.014.924-1.365 1.393-2.943 1.393-4.763 0-2.233-.653-4.067-1.947-5.517-1.309-1.45-2.944-2.36-4.949-2.73-1.464-.27-4.407-.413-8.844-.413zM156.2 90.841V29.756h19.778c7.493 0 12.37.299 14.645.91 3.498.925 6.427 2.915 8.788 5.987 2.36 3.07 3.54 7.038 3.54 11.9 0 3.754-.682 6.897-2.033 9.456-1.365 2.56-3.086 4.565-5.176 6.029-2.09 1.45-4.223 2.417-6.384 2.886-2.943.584-7.195.882-12.769.882h-8.02v23.035zM501.067 131.793h11.954l10.193 30.143 9.947-30.143h11.626l-14.983 40.895-2.701 7.382c-.997 2.47-1.938 4.353-2.839 5.663-.887 1.296-1.924 2.36-3.084 3.166-1.16.818-2.592 1.446-4.298 1.896-1.692.45-3.616.682-5.758.682a30.18 30.18 0 0 1-6.372-.682l-.983-8.76c1.76.34 3.357.518 4.776.518 2.62 0 4.558-.764 5.813-2.306s2.224-3.506 2.893-5.88zm-1.555 0v7.377h-8.596v18.754c0 3.493.068 5.526.218 6.1.15.572.477 1.05 1.01 1.432.518.368 1.146.56 1.896.56 1.05 0 2.552-.355 4.53-1.078l.942 8.732c-2.606 1.12-5.554 1.679-8.856 1.679-2.02 0-3.834-.341-5.458-1.024-1.624-.682-2.81-1.569-3.561-2.647-.765-1.091-1.272-2.553-1.583-4.407-.22-1.312-.355-3.957-.355-7.955V139.17h-6.714v-7.377h6.714v-13.47h11.216v13.47zm-43.05 42.491v-42.49h11.216v42.49zm0-48.222v-10.397h11.216v10.397zm-49.546 36.27 11.298-1.72c.478 2.17 1.446 3.82 2.92 4.94 1.46 1.132 3.52 1.692 6.154 1.692 2.906 0 5.09-.533 6.563-1.597.983-.75 1.474-1.76 1.474-3.015 0-.847-.273-1.556-.805-2.115-.56-.533-1.815-1.038-3.753-1.488-9.074-2.006-14.818-3.834-17.247-5.485-3.37-2.306-5.049-5.5-5.049-9.58 0-3.697 1.46-6.794 4.367-9.305 2.906-2.511 7.409-3.766 13.508-3.766 5.813 0 10.139.955 12.963 2.852 2.825 1.91 4.776 4.72 5.84 8.446l-10.561 1.965c-.45-1.665-1.324-2.947-2.592-3.835-1.27-.886-3.084-1.323-5.445-1.323-2.975 0-5.103.41-6.4 1.242-.86.587-1.282 1.35-1.282 2.279 0 .805.368 1.487 1.119 2.046 1.023.75 4.53 1.801 10.534 3.166 6.004 1.365 10.193 3.029 12.567 5.008 2.36 1.992 3.534 4.789 3.534 8.364 0 3.89-1.624 7.246-4.885 10.043-3.248 2.797-8.064 4.203-14.45 4.203-5.786 0-10.37-1.174-13.754-3.507-3.37-2.333-5.581-5.5-6.618-9.51zm-48.168-12.854c-.082-3.262-.914-5.745-2.51-7.437-1.597-1.706-3.534-2.552-5.827-2.552-2.442 0-4.462.9-6.058 2.689-1.597 1.787-2.375 4.23-2.347 7.3zm-.655 11.38 11.216 1.883c-1.432 4.107-3.71 7.231-6.808 9.387-3.111 2.143-7 3.22-11.653 3.22-7.382 0-12.854-2.415-16.388-7.245-2.797-3.875-4.203-8.76-4.203-14.668 0-7.041 1.842-12.568 5.513-16.552 3.67-3.998 8.323-5.99 13.945-5.99 6.304 0 11.285 2.088 14.941 6.263 3.644 4.175 5.39 10.575 5.227 19.199H341.8c.082 3.329.982 5.922 2.715 7.777 1.72 1.856 3.875 2.784 6.44 2.784 1.761 0 3.235-.478 4.422-1.433 1.2-.955 2.101-2.497 2.715-4.625zm-58.415 13.426-17.125-42.49h11.79l7.996 21.682 2.32 7.245c.614-1.842 1.01-3.056 1.16-3.643.382-1.2.777-2.402 1.214-3.602l8.105-21.683h11.544l-16.88 42.491zm-34.427 0v-42.49h11.217v42.49zm0-48.222v-10.397h11.217v10.397zm-11.366 48.222h-11.216V152.63c0-4.585-.246-7.546-.724-8.883-.49-1.352-1.269-2.388-2.36-3.139-1.092-.75-2.401-1.119-3.93-1.119-1.965 0-3.725.532-5.28 1.597-1.57 1.064-2.634 2.483-3.207 4.23-.587 1.76-.874 5.008-.874 9.756v19.212h-11.216v-42.49h10.398v6.235c3.725-4.762 8.405-7.136 14.068-7.136 2.483 0 4.762.45 6.822 1.337 2.074.9 3.63 2.033 4.68 3.411a12.228 12.228 0 0 1 2.211 4.722c.423 1.76.628 4.27.628 7.545zm-97.686-58.62h11.872v31.767c0 5.048.15 8.31.436 9.797.505 2.402 1.692 4.34 3.575 5.785 1.897 1.46 4.476 2.184 7.75 2.184 3.316 0 5.827-.683 7.52-2.06 1.691-1.379 2.701-3.057 3.042-5.063.341-2.006.518-5.322.518-9.961v-32.448h11.872v30.824c0 7.041-.314 12.022-.955 14.928-.642 2.907-1.815 5.363-3.534 7.369-1.706 2.005-3.998 3.588-6.864 4.775-2.88 1.188-6.618 1.788-11.244 1.788-5.58 0-9.81-.642-12.69-1.938-2.879-1.296-5.158-2.975-6.836-5.049-1.678-2.073-2.77-4.23-3.302-6.508-.778-3.357-1.16-8.324-1.16-14.887zm233.825 58.62h-11.688v-44.278l11.688-.02.022 7.201c3.137-5.005 8.11-8.747 16.276-8.119v11.152c-5.084-2.097-13.24-.079-14.835 5.677-.654 2.36-1.463 4.071-1.463 14.737z" fill="#28388d"/><path d="M1 130.614c21.44-20.915 38.98-36.409 38.98-71.18L39.965 1H1zM52.945 1l-.374 89.562C73.08 69.227 88.37 60.853 91.65 25.097V1zM91.652 70.183C70.574 88.42 52.588 109.7 52.588 136.2v67.56h39.064zM39.314 203.759l.667-94.06C19.45 130.614 1 147.691 1 175.457v28.302z" fill="#fc502c" fill-rule="evenodd"/></g></svg>