<svg xmlns="http://www.w3.org/2000/svg" width="468.572" height="752.619" viewBox="0 0 351.429 564.464"><g data-name="Слой 1"><path d="M167.516 421.593c201.132-110.682 128.848-285.94 122.852-299.565-20.438-5.573-40.082-9.952-60.059-12.952-20.219-3.037-40.76-4.649-62.793-4.649-22.034 0-42.574 1.612-62.793 4.649-19.978 3-39.62 7.379-60.059 12.952-5.997 13.626-78.28 188.883 122.852 299.565" fill="#fff" fill-rule="evenodd"/><path d="M167.516 104.427c-22.034 0-42.574 1.612-62.793 4.649-19.978 3-39.62 7.379-60.059 12.952-5.997 13.626-78.28 188.883 122.852 299.565 201.132-110.682 128.848-285.94 122.852-299.565-20.438-5.573-40.082-9.952-60.059-12.952-20.219-3.037-40.76-4.649-62.793-4.649zm-63.404.586c20.433-3.069 41.175-4.699 63.404-4.699 22.229 0 42.972 1.63 63.405 4.699 20.37 3.058 40.47 7.564 61.466 13.321l.936.258.396.875c.247.545 88.501 189.42-125.223 306.279l-.98.536-.98-.536C-47.188 308.887 41.066 120.012 41.313 119.466l.398-.874.935-.258c20.996-5.757 41.094-10.263 61.466-13.321" fill="#93193e"/><path d="M55.215 134.12c-2.726 7.16-4.99 15.049-6.734 21.93-5.916 23.328-8.295 47.838-6.47 71.849 6.161 81.068 57.913 143 125.505 181.992 67.593-38.992 119.344-100.924 125.505-181.992 1.825-24.011-.554-48.521-6.47-71.85-1.745-6.88-4.008-14.769-6.734-21.928-37.386-9.75-73.158-15.299-112.3-15.299-39.143 0-74.916 5.549-112.302 15.299" fill="#93193e" fill-rule="evenodd"/><path d="M102.635 88.018c8.979 0 16.257 7.279 16.257 16.257 0 8.978-7.278 16.257-16.257 16.257-8.978 0-16.257-7.279-16.257-16.257 0-8.978 7.279-16.257 16.257-16.257" fill="#f37923" fill-rule="evenodd"/><path d="M217.112 135.262c-96.402 44.78-86.98 111.592-57.296 183.32-.312-35.144-.815-62.811 39.2-84.774l18.096-98.546" fill="#fff" fill-rule="evenodd"/><path d="m214.443 170.7 24.967-4.538-21.562 87.677c-28.498-.617-53.027 29.02-58.032 64.743 3.44-48.737 13.858-68.87 41.213-80.992z" fill="#fff" fill-rule="evenodd"/><path d="m236.413 193.403 25.005.951-24.085 78.961c-45.638-8.374-60.605 17.93-77.517 45.267 8.97-37.395 30.536-60.94 61.596-62.055z" fill="#fff" fill-rule="evenodd"/><path d="M223.615 66.628c3.31 30.533-4.55 49.28-27.639 68.188-20.146 16.498-37.854 26.397-48.959 51.736-19.355 44.167-10.667 90.683 15.65 130.128l12.93 19.38-17.964-14.835c-27.278-22.528-50.635-52.38-62.528-85.942-10.188-28.75-11.843-60.727 2.516-88.37l.091-.163c15.468-26.2 38.282-36.206 65.646-45.77 20.694-7.23 43.64-14 53.75-35.444l5.195-11.018z" fill="#93193e" fill-rule="evenodd"/><path d="M220.208 66.997c-20.832 44.182-87.904 27.905-119.544 81.496-26.125 50.29.197 121.4 59.152 170.089-29.135-43.668-34.155-91.126-15.938-133.405 23.995-54.045 83.96-47.814 76.33-118.18" fill="#fff" fill-rule="evenodd"/><path d="M104.118 350.84c53.435-3.034 78.822-18.7 119.627-49.224 48.173-31.27 82.97-43.775 126.684-38.637-52.941 15.171-71.516 45.013-113.124 72.815-30.091 18.575-79.13 36.78-133.186 15.046" fill="#f37923" fill-rule="evenodd"/><path d="M1 295.113c29.957-2.203 45.885 2.135 68.621 10.967 25.882 10.42 44.408 28.606 77.239 25.538-27.128 13.005-54.753 13.367-79.745 1.41C45.077 320.39 30.939 304.616 1 295.112" fill="#f37923" fill-rule="evenodd"/><path d="m203.74 30.188 14.427-12.302.11-16.886 10.066 13.084 11.407-.895-5.48 8.947 4.81 15.32-8.724-4.807-8.053 21.87-1.452-22.989z" fill="#93193e" fill-rule="evenodd"/><path d="M159.816 318.582c-36.452-49.376-40.252-101.7-27.923-133.373 30.431-66.354 91.133-54.81 88.315-118.212-12.392 56.844-94.608 27.145-115.655 97.362-12.46 50.226 9.107 110.093 55.263 154.223" fill="#f37923" fill-rule="evenodd"/><path d="M45.873 488.612v72.373h26.07v-72.373h27.661v-21.427c-42.836-.021-81.316-.006-82.47.11v21.317zm63.11 0v72.373h24.763V514.08l22.572 38h12.344l23.17-40.026v48.93h24.526v-93.69s-8.365-.012-21.668-.027l-31.3 54.568-32.051-54.63c-7.398-.006-14.906-.012-22.356-.016zm144.75-15.954c-23.427 13.538-27.99 39.397-18.606 65.175 16.904 28.316 57.308 35.796 84.207 9.038l-16.16-16.48c-13.326 14.78-30.798 11.484-42.53.638-7.159-9.852-6.555-24.173-.106-33.385 12.758-13.821 28.281-13.185 42.74.319l16.056-15.099c-19.526-20.2-44.16-21.583-65.6-10.206" fill="#93193e" fill-rule="evenodd"/></g></svg>