<svg xmlns="http://www.w3.org/2000/svg" width="424.861" height="533.795" viewBox="0 0 318.646 400.346"><g data-name="Слой 1" fill-rule="evenodd"><path d="m159.324 253.589-13.095-6.305C96.193 223.197 63.86 171.75 63.86 116.215V24.261l1.11-.536c59.962-28.864 128.745-28.864 188.705 0l1.11.536v91.954c0 55.533-32.33 106.98-82.368 131.069l-13.093 6.305z" fill="#1166af"/><path d="M64.937 24.937v91.28c0 55.122 32.092 106.188 81.758 130.098l12.629 6.078 12.627-6.078c49.667-23.911 81.76-74.977 81.76-130.099v-91.28l-.5-.24c-59.669-28.722-128.108-28.722-187.774 0l-.5.24zm94.386 229.846-13.561-6.529c-50.408-24.265-82.977-76.093-82.977-132.038V23.582l1.718-.826c60.26-29.008 129.382-29.007 189.64 0l1.72.826v92.634c0 55.942-32.57 107.771-82.98 132.038l-13.56 6.529z" fill="#fff"/><path d="M159.326 10.388c-29.159 0-58.683 6.275-85.38 18.145l-1.166.52-1.277.568V116.218c0 52.61 30.636 101.354 78.046 124.179l8.845 4.249.932.448.933-.448 8.844-4.25c47.412-22.826 78.047-71.57 78.047-124.178V29.617l-1.278-.568-1.166-.516c-26.716-11.87-56.239-18.145-85.38-18.145zm0 2.153c28.84 0 58.064 6.209 84.508 17.96l1.163.516v85.2c0 51.789-30.156 99.77-76.826 122.238l-8.845 4.249-8.842-4.249c-46.673-22.468-76.827-70.45-76.827-122.237v-85.2l1.163-.517c26.426-11.751 55.647-17.96 84.506-17.96z" fill="#fff"/><path d="M191.152 123.18h-63.711v35.226c0 15.708 12.778 28.487 28.488 28.487h6.736c15.708 0 28.487-12.78 28.487-28.487V123.18zM189 125.336v33.07c0 14.52-11.814 26.333-26.335 26.333h-6.736c-14.522 0-26.334-11.812-26.334-26.332v-33.071z" fill="#fff"/><path d="m159.277 148.719-1.569-1.57 1.569-1.568 1.569 1.569zm0-5.368a3.8 3.8 0 1 0 .002 7.598 3.8 3.8 0 0 0-.002-7.598" fill="#fff"/><path d="M159.277 143.997c1.142 0 2.604.217 3.39.57.082.038.181.06.284.06h11.413c.222 0 .414-.091.458-.217l.655-1.825c.06-.17-.162-.328-.458-.328h-31.484c-.296 0-.518.158-.458.328l.655 1.825c.046.126.237.217.46.217h11.411a.698.698 0 0 0 .286-.06c.783-.353 2.248-.57 3.388-.57M145.202 163.842l2.98-11.119 2.98 11.12a.132.132 0 0 0 .125.097h1.838a.132.132 0 0 0 .127-.165l-3.768-14.059a3.585 3.585 0 0 1 0-1.854l.709-2.647a.132.132 0 0 0-.128-.165h-1.835c-.06 0-.11.042-.127.098l-4.992 18.627a.132.132 0 0 0 .128.165h1.837c.059 0 .11-.041.126-.098zM153.237 165.823a5.386 5.386 0 0 1-5.062 3.514v-.068a5.774 5.774 0 0 0 3.518-1.97 5.28 5.28 0 0 0 .888-1.56l-.77.009c-1.444-.01-2.89-.034-4.337-.129a43.641 43.641 0 0 1-4.335-.45v-.067l8.672-.036 1.086.005h.269c.034-.002.12 0 .17.046.048.04.078.11.068.177-.056.189-.1.355-.167.528zm1.296-1.234H141.83a.17.17 0 0 0-.164.207 6.734 6.734 0 0 0 6.517 5.052 6.73 6.73 0 0 0 6.515-5.052.168.168 0 0 0-.164-.207zM173.392 163.842l-2.98-11.119-2.978 11.12a.134.134 0 0 1-.129.097h-1.835a.132.132 0 0 1-.127-.165l3.768-14.059a3.583 3.583 0 0 0 0-1.854l-.71-2.647a.131.131 0 0 1 .126-.165h1.837c.06 0 .112.042.128.098l4.991 18.627a.131.131 0 0 1-.127.165h-1.838a.132.132 0 0 1-.126-.098zM175.469 165.823a5.391 5.391 0 0 1-5.062 3.514v-.068a5.771 5.771 0 0 0 3.517-1.97c.383-.472.688-.999.889-1.56l-.77.009c-1.445-.01-2.892-.034-4.337-.129a43.603 43.603 0 0 1-4.336-.45v-.067l8.673-.036 1.083.005h.272c.034-.002.12 0 .168.046.05.04.08.11.07.177-.058.189-.1.355-.167.528zm1.296-1.234H164.06a.167.167 0 0 0-.163.207 6.73 6.73 0 0 0 6.515 5.052 6.732 6.732 0 0 0 6.516-5.052.168.168 0 0 0-.163-.207z" fill="#fff"/><path d="M161.853 136.858c.101.264.24.517.296.794-.575 1.26-1.212 2.493-1.809 3.745.156 0 .31.003.463.005 0 .18-.002.36-.004.54-.582.123-1.168.25-1.718.488-.486.206-.886.557-1.271.91-.005-.647-.002-1.295-.002-1.942l.4-.002c-.597-1.244-1.225-2.475-1.8-3.73.04-.284.19-.54.29-.805.683-1.67 1.382-3.329 2.054-5.003-.218-.303-.036-.579.258-.706a77.137 77.137 0 0 1-.104 4c-.343.183-.688.487-.654.914-.04.55.494 1.002 1.019.99.576.02 1.134-.517 1.024-1.109-.025-.376-.346-.619-.642-.793a124.83 124.83 0 0 1-.104-3.998c.301.105.48.412.266.704.668 1.67 1.358 3.332 2.038 4.997zM158.64 168.231c1.155-.074 2.323.123 3.431.442l.165.048a8.772 8.772 0 0 1 2.17 1.071c.659.45 1.255.993 1.76 1.612-2.87.226-5.733.504-8.593.832 3.108.069 6.219.085 9.327.045.089.192.174.383.262.576l-15.769.004a8.772 8.772 0 0 1 3.615-3.62c1.065-.566 2.23-.882 3.429-.993.067-.007.136-.012.204-.017z" fill="#fff"/><path d="M161.082 168.635h-3.61l-1.449-4.271 1.81-12.747 1.444-2.55 1.443 2.55 1.81 12.747-1.448 4.27zM160.846 143.443h-3.038v-2.045h3.038zM136.23 108.886c2.31 4.55 5.286 8.371 8.721 11.217l-.154 1.023c-10.44-4.294-18.577-13.08-21.959-23.951 2.903 4.712 7.566 8.756 13.393 11.711zm-4.369-13.195c.697 3.844 1.794 7.466 3.225 10.774-6.924-3.976-11.805-9.621-13.392-16.046 2.132 2.105 5.705 3.876 10.167 5.272zm-.859-9.008c.035 2.469.223 4.885.565 7.224-6.009-2.028-9.684-4.637-10.326-7.224zm.565-8.84a55.595 55.595 0 0 0-.565 7.225h-9.761c.642-2.59 4.317-5.195 10.326-7.225zm3.518-12.556c-1.43 3.305-2.527 6.93-3.224 10.773-4.462 1.394-8.035 3.167-10.167 5.27 1.587-6.424 6.468-12.07 13.391-16.043zm12.857-15.815c-4.713 2.903-8.755 7.564-11.711 13.393-5.827 2.955-10.488 6.998-13.393 11.711 3.715-11.944 13.16-21.39 25.104-25.104zm1.484 9.024c-3.844.696-7.467 1.792-10.773 3.222 3.975-6.92 9.62-11.802 16.044-13.39-2.104 2.132-3.875 5.705-5.27 10.168zm9.008-10.623v9.763a55.404 55.404 0 0 0-7.224.565c2.029-6.01 4.636-9.686 7.224-10.328zm0 24.565c-3.465.025-6.94.205-10.313.535.57-4.993 1.452-9.386 2.544-13.048a53.774 53.774 0 0 1 7.769-.676zm0 12.63h-11.013c.023-3.711.209-7.217.529-10.485 3.267-.319 6.774-.505 10.484-.53v11.015zm0 2.954c-1.722-.03-3.47-.041-5.16-.05-2.066-.01-4.075-.023-5.831-.07-.01-.405-.02-.808-.022-1.219h11.013zm-24.83-12.476c.82-4.161 2.123-8.036 3.816-11.493 3.456-1.694 7.33-2.995 11.492-3.816-1.069 3.855-1.88 8.261-2.404 12.905-4.645.524-9.049 1.335-12.904 2.404zm12.2 9.522h-6.871c-1.197-1.62-1.552-3.422-1.575-3.547l-.452-2.52-1.076 2.325a25.12 25.12 0 0 0-1.406 3.742h-1.807c.04-2.667.27-5.263.673-7.768 3.662-1.093 8.056-1.978 13.05-2.546-.33 3.373-.51 6.85-.536 10.314zm-3.15 2.454a5.859 5.859 0 0 1-2.042-.839h5.192c.004.385.014.771.023 1.156-1.32-.064-2.419-.161-3.174-.317zm-6.896 7.6a55.724 55.724 0 0 1-2.468-.67 53.828 53.828 0 0 1-.673-7.769h1.43c-.701 3.825.254 6.468 1.71 8.439zm3.625 3.503c4.871 3.898 8.632 8.643 7.892 9.958-.205.366-.448 1.218-.714 2.403-3.273-.81-6.345-1.919-9.14-3.29-1.696-3.455-2.997-7.329-3.817-11.49 1.295.357 2.654.685 4.06.983.587.53 1.175 1.002 1.72 1.436zm5.857 19.64c-2.498-2.215-4.727-4.996-6.587-8.233 2.373 1.026 4.917 1.867 7.582 2.525-.32 1.62-.658 3.594-.995 5.707zm14.81-31.582h11.011c-.005.931-.027 1.841-.055 2.743-.118-.044-.227-.092-.347-.136-2.223-.82-6.241-1.114-10.61-1.231v-1.376zm0-12.63c3.708.025 7.216.211 10.483.53.32 3.268.506 6.774.528 10.485H160.05V74.053zm0-14.804c2.664.04 5.262.272 7.767.676 1.092 3.662 1.975 8.055 2.546 13.048-3.374-.33-6.85-.51-10.314-.535zm0-11.376c2.588.642 5.194 4.319 7.222 10.328a55.397 55.397 0 0 0-7.223-.565zm19.78 13.845c-3.306-1.43-6.93-2.526-10.774-3.222-1.395-4.463-3.166-8.036-5.269-10.168 6.424 1.588 12.068 6.47 16.043 13.39zm15.814 12.858c-2.904-4.713-7.566-8.756-13.392-11.711-2.956-5.829-6.998-10.49-11.712-13.393 11.945 3.715 21.39 13.16 25.104 25.104zm-9.023 1.484c-.697-3.844-1.793-7.468-3.224-10.773 6.923 3.974 11.804 9.619 13.392 16.043-2.133-2.103-5.705-3.876-10.168-5.27zm.86 9.008a55.296 55.296 0 0 0-.567-7.225c6.01 2.028 9.687 4.636 10.328 7.225h-9.76zm-.567 8.84c.344-2.34.532-4.756.567-7.225h9.761c-.641 2.587-4.317 5.196-10.328 7.224zm2.083 8.583a49.54 49.54 0 0 1-.264-.521c-.612-1.223-1.651-2.196-2.835-2.967.271-1.087.52-2.188.723-3.312 4.463-1.396 8.035-3.167 10.168-5.272-1.116 4.513-3.86 8.637-7.792 12.072zM170.54 122.28c4.714-2.905 8.756-7.566 11.712-13.393a39.714 39.714 0 0 0 4.777-2.862c.364.084.68.162.952.229 1.07.269 1.715.43 2.153-.13.41-.52.214-1.022-.387-2.187 2.385-2.032 4.384-4.305 5.897-6.761-3.714 11.944-13.16 21.39-25.104 25.104zm-3.456.002-.255-1.063a38.738 38.738 0 0 1-.346-1.63c.962-1.798 1.823-3.934 2.573-6.333 3.844-.696 7.468-1.793 10.774-3.223-3.279 5.71-7.695 10.02-12.746 12.249zm-.76-8.61c.315-.04.635-.077.948-.123a37.986 37.986 0 0 1-1.16 3.026c-.05-1.116.024-2.074.213-2.903zm1.975-3.577a55.36 55.36 0 0 1-.482 1.733c-.29.047-.587.082-.88.125.359-.699.821-1.3 1.362-1.858zm2.015-1.573c1.82-1.07 4.092-1.782 5.73-2.294.876-.273 1.568-.49 2.04-.705.657-.297 2.205-.363 4.051-.23-.339.821-.691 1.628-1.072 2.404-3.456 1.694-7.331 2.996-11.493 3.816.267-.96.51-1.966.744-2.991zm13.491-3.062c.335.043.672.09 1.013.142-.463.294-.935.585-1.42.864.143-.33.272-.67.407-1.006zm-11.83-32.317c-.524-4.644-1.335-9.05-2.405-12.905 4.162.82 8.037 2.122 11.493 3.816 1.692 3.457 2.996 7.332 3.816 11.493-3.856-1.069-8.26-1.88-12.904-2.404zm.702 11.926a114.466 114.466 0 0 0-.533-10.314c4.992.568 9.387 1.453 13.048 2.546.404 2.505.635 5.1.674 7.768h-13.19zm12.515 9.383c-1.885.562-3.98 1.062-6.236 1.5-.614-1.546-2.21-3.9-6.362-5.853.042-1.136.076-2.275.083-3.415h13.189a53.75 53.75 0 0 1-.674 7.768zm-.752 3.726a20.348 20.348 0 0 0-2.915-1.144 65.036 65.036 0 0 0 3.354-.828c-.132.666-.281 1.321-.44 1.972zm-39.89 24.599c-.1.675-.197 1.35-.293 2.021h1.635c1.07-7.42 2.219-14.402 2.791-15.423 2.064-3.665-7.868-11.67-8.291-12.009-3.75-2.998-6.626-6.123-3.928-13.376.825 1.891 2.525 4.428 5.863 5.115 2.104.434 6.199.456 10.938.483 6.441.038 13.744.078 16.836 1.22 6.294 2.316 7.392 5.545 7.58 6.48l.11.553.558.086c.072.012 7.127 1.142 8.939 4.765.317.636.592 1.161.82 1.594l.201.386c-.284-.07-.611-.152-.988-.237-2.769-.63-7.908-1.291-9.904-.381-.383.173-1.064.387-1.853.633-2.293.716-5.757 1.8-7.9 3.77-3.27 3.014-3.944 6.698-2.405 13.138a896.6 896.6 0 0 0 .772 3.203h1.661l-.026-.11c17.87-3.876 31.304-19.797 31.304-38.812 0-21.906-17.823-39.728-39.728-39.728-21.907 0-39.729 17.822-39.729 39.728 0 16.718 10.384 31.045 25.037 36.9z" fill="#fff"/><path d="M133.62 173.388c-25.975-10.25-44.405-35.593-44.405-65.166 0-29.627 18.492-55.015 44.54-65.228-14.813 8.752-24.772 24.888-24.772 43.307 0 16.393 7.892 30.975 20.074 40.155v-1.66h1.369c-11.705-8.782-19.29-22.77-19.29-38.495 0-26.519 21.57-48.094 48.086-48.107h.02v-2.152c-39.8 0-72.18 32.379-72.18 72.18 0 31.74 20.591 58.76 49.12 68.402a26.87 26.87 0 0 1-2.563-3.236z" fill="#fff"/><path d="M159.242 36.042v2.152h.02c26.514.013 48.084 21.588 48.084 48.107 0 15.724-7.585 29.713-19.289 38.495h1.48v1.577c12.12-9.184 19.962-23.729 19.962-40.072 0-18.42-9.956-34.555-24.773-43.307 26.05 10.213 44.542 35.601 44.542 65.228 0 29.516-18.36 54.82-44.256 65.108a27.081 27.081 0 0 1-2.544 3.237c28.44-9.69 48.954-36.666 48.954-68.345 0-39.801-32.381-72.18-72.18-72.18zM176.745 216.65c-1.29 0-2.768-.179-4.433-.638-7.424-2.052-8.782-7.46-8.782-7.46s-.082 6.446 4.631 10.38c0 0-5.503 5.867-8.822 6.63l-.041.01-.043-.01c-3.317-.763-8.821-6.63-8.821-6.63 4.711-3.934 4.63-10.38 4.63-10.38s-1.357 5.409-8.782 7.46c-1.666.46-3.143.638-4.432.638-4.454 0-6.664-2.13-6.664-2.13s2.476-.435 9.74-4.849c7.263-4.414 6.884-10.07 6.884-10.07s-2.893 6.153-10.875 7.522c-1.417.243-2.637.342-3.686.342-4.866 0-6.054-2.145-6.054-2.145s13.091-4.972 17.082-10.07c3.992-5.095 3.513-9.158 3.513-9.158h15.013s-.48 4.063 3.512 9.158c3.992 5.098 17.083 10.07 17.083 10.07s-1.187 2.145-6.052 2.145c-1.05 0-2.271-.099-3.686-.342-7.983-1.37-10.874-7.521-10.874-7.521s-.382 5.655 6.882 10.07c7.265 4.413 9.738 4.847 9.738 4.847s-2.207 2.13-6.661 2.13zm5.546-5.978c5.705-.291 7.6-3.184 7.933-3.786l1.807-3.263-3.486-1.323c-4.74-1.804-13.188-5.853-15.685-9.041-2.862-3.653-2.858-6.442-2.842-6.821l.377-2.295a26.824 26.824 0 0 1-7.728 1.135h-6.738c-2.688 0-5.282-.401-7.733-1.135l.381 2.294c.016.381.018 3.17-2.842 6.822-2.497 3.188-10.948 7.238-15.687 9.041l-3.482 1.327 1.804 3.258c.334.603 2.23 3.496 7.931 3.787-1.01.45-1.554.621-1.723.672l-6.809.74 5.174 4.76c.323.311 3.311 3.037 8.907 3.037 1.456 0 2.973-.188 4.52-.557l1.709 1.82c1.443 1.538 6.456 6.624 10.417 7.558l.017.006.783.194.783-.194.018-.006c3.962-.933 8.974-6.02 10.42-7.559l1.706-1.82c1.548.37 3.066.558 4.522.558 5.596 0 8.583-2.726 8.905-3.038l4.965-4.79-6.599-.71c-.17-.05-.714-.221-1.725-.671zM109.517 193.526l-.192-1.213.894-.18v-6.805l-.867-.095v-1.228h6.28l.264 2.811h-1.075l-.566-1.363h-2.23v2.452h2.094v1.447h-2.094v2.729h2.328l.51-1.366h1.088l-.29 2.81h-6.144zM119.74 193.581a5.753 5.753 0 0 1-1.53-.2 11.656 11.656 0 0 1-1.281-.42l.275-2.66 1.157.097.112 1.529a20 20 0 0 1 .488.124c.207.055.44.083.696.083.293 0 .562-.038.806-.117.242-.078.44-.2.592-.365.152-.165.227-.381.227-.648a.955.955 0 0 0-.191-.612 1.943 1.943 0 0 0-.573-.455c-.254-.142-.576-.3-.97-.475a14.42 14.42 0 0 1-.993-.504 4.08 4.08 0 0 1-.793-.57 2.31 2.31 0 0 1-.53-.753c-.128-.288-.191-.64-.191-1.053 0-.533.143-.99.432-1.377.29-.385.68-.683 1.17-.896a4.074 4.074 0 0 1 1.619-.317c.477 0 .945.037 1.399.112.454.072.86.16 1.22.26l.206 2.617h-1.157l-.675-1.46c-.12-.016-.266-.036-.442-.054a5.02 5.02 0 0 0-.494-.029c-.323 0-.587.05-.793.146-.208.096-.36.222-.461.38a.944.944 0 0 0-.152.522c0 .183.056.346.172.488.115.144.266.271.455.387.188.115.39.22.605.317.217.096.426.195.628.295.54.258.99.516 1.342.773.355.256.617.545.793.867.175.323.262.704.262 1.143 0 .514-.1.951-.297 1.31-.198.357-.462.65-.792.875a3.45 3.45 0 0 1-1.108.49 5.25 5.25 0 0 1-1.234.15zM125.609 193.526l-.14-1.103 1.586-.302v-6.668h-1.556l-.593 1.378h-1.062l.262-2.826h7.646l.304 2.811h-1.048l-.605-1.363h-1.571v6.668l1.598.302-.137 1.103h-4.684zM133.363 193.581a.9.9 0 0 1-.646-.267.88.88 0 0 1-.277-.657c0-.257.093-.471.277-.647a.908.908 0 0 1 .646-.26.907.907 0 0 1 .925.907c0 .259-.091.477-.27.656a.898.898 0 0 1-.655.268M183.824 193.526l-.207-1.115c.156-.185.395-.444.716-.779.321-.335.67-.712 1.048-1.131.377-.417.738-.853 1.087-1.307.35-.455.637-.899.862-1.33.225-.433.337-.823.337-1.171 0-.294-.052-.528-.158-.703a.962.962 0 0 0-.42-.385 1.394 1.394 0 0 0-.605-.124 2.92 2.92 0 0 0-.477.033c-.132.023-.25.06-.35.105l-.607 1.433-1.763-.896a4.365 4.365 0 0 1 1.398-1.509c.602-.41 1.292-.612 2.074-.612.32 0 .646.047.972.144.325.096.627.247.907.455.28.207.506.475.676.805.169.331.255.73.255 1.198 0 .424-.095.855-.289 1.296-.192.44-.441.87-.744 1.287-.303.42-.624.815-.965 1.185-.34.373-.66.7-.957.985a38.63 38.63 0 0 0-.71.69h2.577l.564-1.515h1.074l-.303 2.96h-5.992zM194.557 192.135c.357 0 .645-.11.86-.325.215-.215.384-.493.502-.833.12-.34.2-.703.242-1.09a9.82 9.82 0 0 0 .062-1.086c0-.34-.02-.702-.062-1.09a4.812 4.812 0 0 0-.242-1.086 2.171 2.171 0 0 0-.503-.835c-.214-.216-.502-.323-.86-.323-.349 0-.63.106-.848.323a2.093 2.093 0 0 0-.494.835 5.121 5.121 0 0 0-.236 1.087c-.04.387-.062.748-.062 1.089 0 .34.021.702.062 1.087.043.386.12.75.236 1.089.113.34.278.618.494.833.217.216.5.325.849.325zm0 1.446c-.654 0-1.205-.136-1.656-.406a3.214 3.214 0 0 1-1.093-1.096 4.962 4.962 0 0 1-.607-1.542 8.222 8.222 0 0 1 0-3.486c.125-.57.326-1.081.607-1.536.28-.454.646-.817 1.093-1.089.451-.27 1.002-.406 1.656-.406.651 0 1.205.135 1.66.406.453.272.821.635 1.102 1.09.28.454.484.966.611 1.535.13.57.194 1.153.194 1.75 0 .589-.064 1.167-.194 1.736a5.066 5.066 0 0 1-.611 1.542c-.28.46-.649.825-1.102 1.096-.455.27-1.009.406-1.66.406M199.364 193.526l-.206-1.115c.154-.185.394-.444.716-.779.321-.335.67-.712 1.047-1.131.375-.417.739-.853 1.088-1.307.348-.455.637-.899.862-1.33.224-.433.335-.823.335-1.171 0-.294-.051-.528-.156-.703a.99.99 0 0 0-.422-.385 1.39 1.39 0 0 0-.604-.124 2.94 2.94 0 0 0-.477.033c-.133.023-.25.06-.35.105l-.608 1.433-1.763-.896a4.39 4.39 0 0 1 1.398-1.509c.603-.41 1.294-.612 2.074-.612.321 0 .646.047.972.144.326.096.628.247.907.455.282.207.506.475.676.805.17.331.256.73.256 1.198 0 .424-.096.855-.29 1.296-.193.44-.441.87-.744 1.287-.303.42-.624.815-.965 1.185-.34.373-.657.7-.957.985a43.81 43.81 0 0 0-.71.69h2.577l.564-1.515h1.076l-.303 2.96zM210.095 192.135c.358 0 .646-.11.86-.325.216-.215.385-.493.504-.833.119-.34.2-.703.24-1.09a9.82 9.82 0 0 0 .063-1.086c0-.34-.02-.702-.063-1.09a4.763 4.763 0 0 0-.24-1.086 2.171 2.171 0 0 0-.504-.835c-.214-.216-.502-.323-.86-.323-.35 0-.63.106-.847.323-.216.216-.381.495-.495.835a5.17 5.17 0 0 0-.236 1.087c-.04.387-.062.748-.062 1.089 0 .34.021.702.062 1.087.043.386.12.75.236 1.089.114.34.279.618.495.833.216.216.498.325.847.325zm0 1.446c-.652 0-1.204-.136-1.655-.406a3.206 3.206 0 0 1-1.093-1.096 4.96 4.96 0 0 1-.607-1.542 8.097 8.097 0 0 1-.186-1.736c0-.597.062-1.18.186-1.75a4.88 4.88 0 0 1 .607-1.536c.28-.454.645-.817 1.093-1.089.451-.27 1.003-.406 1.655-.406.653 0 1.206.135 1.66.406.454.272.823.635 1.102 1.09.28.454.485.966.612 1.535.13.57.194 1.153.194 1.75 0 .589-.064 1.167-.194 1.736a5.05 5.05 0 0 1-.612 1.542c-.28.46-.648.825-1.102 1.096-.454.27-1.007.406-1.66.406" fill="#fff"/><path d="m153.456 274.291-1.437-1.374c13.59-14.223 39.592-25.468 45.81-27.702 46.122-16.57 74.625-63.874 67.777-112.479l1.967-.276c6.98 49.532-22.069 97.738-69.071 114.626-5.754 2.066-31.857 13.401-45.047 27.205z" fill="#1166af"/><path d="M225.277 252.505c-1.602 1.052-3.803 1.612-6.177 1.821-2.376.21-4.93.053-7.413-.592-5.093-1.53-8.471-4.44-9.659-7.305 1.552-.612 3.49-.882 5.678-.809 2.144-.023 4.498.2 6.978.828a27.327 27.327 0 0 1 6.555 2.546c1.804.995 3.22 2.193 4.038 3.511zM207.367 222.49a13.195 13.195 0 0 0-3.276 3.433c-1.014 1.529-1.893 3.49-2.59 5.731-1.496 4.239-1.839 8.676-.743 11.579 1.485-.635 3.004-1.787 4.336-3.307 1.287-1.62 2.343-3.694 3.04-5.935.684-2.266.934-4.392.745-6.397-.191-2.01-.733-3.76-1.512-5.103zM244.024 238.702c-.72.63-1.568 1.216-2.513 1.738-.934.535-1.98.984-3.156 1.274-2.312.628-4.88.915-7.45.742a16.585 16.585 0 0 1-6.726-1.825c-1.853-.96-3.25-2.169-4.11-3.461 2.925-1.619 7.298-2.7 12.453-2.354 2.602.214 4.853.507 6.847 1.18 1.976.649 3.6 1.565 4.655 2.706zM220.748 212.627c-.502.465-.96 1.051-1.37 1.744-.404.704-.773 1.497-1.155 2.309-.726 1.667-1.25 3.716-1.52 6.037-.241 2.36-.303 4.533-.07 6.503.237 1.977.763 3.734 1.58 5.053 2.794-1.64 4.958-5.837 5.51-10.442.312-2.27-.013-4.603-.546-6.504-.553-1.924-1.411-3.529-2.429-4.7zM259.846 221.656c-1.206 1.486-2.95 2.892-5.013 4.016-2.042 1.142-4.64 1.793-7.195 2.106-2.59.29-4.928.093-6.885-.457-1.996-.588-3.619-1.532-4.703-2.636 1.309-1.044 2.85-2.172 4.88-2.948 1.974-.826 4.416-1.34 6.883-1.73 4.934-.774 9.53-.186 12.033 1.649zM232.076 200.43c-.84 1.082-1.423 2.6-1.734 4.452-.292 1.868-.553 3.864-.377 6.196.144 2.303.572 4.529 1.22 6.467.611 1.899 1.44 3.504 2.495 4.649 1.24-1.041 2.064-2.833 2.703-4.77.59-1.988.969-4.153.719-6.548-.494-4.798-2.582-8.532-5.026-10.446zM272.22 201.958c-.925 1.676-2.421 3.36-4.27 4.836-1.845 1.477-4.035 2.745-6.609 3.458-5.046 1.5-9.43.904-11.976-.866.947-1.37 2.4-2.667 4.249-3.808.907-.582 1.984-1.084 3.016-1.614a27.017 27.017 0 0 1 3.356-1.416c4.766-1.654 9.442-1.914 12.233-.59zM240.95 186.338c-.637 1.21-.973 2.784-.964 4.642.01 1.86.372 4.012.857 6.194 1.089 4.42 3.232 8.362 5.726 10.211.877-1.357 1.502-3.167 1.769-5.188.117-1.021.216-2.052.085-3.184a20.251 20.251 0 0 0-.674-3.42c-1.322-4.583-4.024-7.83-6.798-9.255M280.531 180.211c-.26.92-.616 1.885-1.152 2.826a19.753 19.753 0 0 1-2.053 2.752 22.484 22.484 0 0 1-5.79 4.674c-4.715 2.408-9.195 2.619-12.023 1.366.704-1.512 1.925-3.04 3.564-4.494 1.49-1.514 3.397-2.958 5.62-4.211 4.528-2.472 8.808-3.697 11.834-2.913zM246.871 170.797c-.165.663-.193 1.413-.187 2.211-.032.785.034 1.636.193 2.541.318 1.807 1.01 3.824 2.062 5.936 1.864 4.116 4.647 7.556 7.45 8.905.64-1.482.95-3.361.87-5.38a19.335 19.335 0 0 0-1.892-6.4c-2.006-4.197-5.538-6.95-8.496-7.813zM284.607 157.276c-.215 1.905-.76 4.052-2.015 6.098a22.898 22.898 0 0 1-4.908 5.675 19.778 19.778 0 0 1-3.007 2.07c-1.055.544-2.1.958-3.104 1.248-2.007.58-3.856.667-5.368.32 1.027-3.182 3.388-6.992 7.405-10.286a52.788 52.788 0 0 1 2.911-2.22 21.078 21.078 0 0 1 2.848-1.653c1.88-.892 3.688-1.35 5.238-1.252zM249.77 154.446c-.125 1.358.368 2.965.98 4.672.618 1.703 1.644 3.548 3.042 5.413a27.946 27.946 0 0 0 2.22 2.616 21.776 21.776 0 0 0 2.231 2.149c1.53 1.266 3.12 2.18 4.623 2.572.914-3.11-.473-7.656-3.203-11.362a14.15 14.15 0 0 0-2.326-2.487 17.427 17.427 0 0 0-2.567-1.846c-1.728-1.01-3.455-1.582-5-1.727zM284.281 134.019c.164 1.903-.115 4.123-.817 6.355-.755 2.239-2.135 4.503-3.777 6.495-1.67 1.994-3.497 3.468-5.29 4.42-1.856.953-3.679 1.387-5.227 1.335.233-1.658.56-3.54 1.492-5.5.87-1.96 2.229-4.017 3.812-6.006 3.01-3.96 6.727-6.7 9.807-7.1zM264.792 115.015c1.453 1.24 2.815 3.013 3.886 5.094 1.038 2.124 1.651 4.703 1.881 7.275.217 2.593-.048 4.923-.654 6.863-.647 1.979-1.64 3.572-2.775 4.624-1.002-1.344-2.09-2.911-2.807-4.96-.76-2.006-1.24-4.424-1.513-6.952-.642-4.931.072-9.495 1.982-11.944zM249.535 137.81c.151 1.364.788 2.864 1.855 4.421 1.015 1.557 2.258 3.177 3.981 4.746 1.697 1.565 3.546 2.879 5.354 3.834 1.75.954 3.458 1.545 5.011 1.644.183-1.607-.464-3.474-1.338-5.316-.937-1.844-2.212-3.673-3.977-5.234-3.694-3.133-7.797-4.394-10.886-4.094M148.883 272.734l5.194 5.295s17.083-21.698 44.089-31.88c0 0-29.697 6.134-49.282 26.585" fill="#1166af"/><path d="M165.191 274.291c-13.19-13.804-39.293-25.14-45.046-27.205-47.003-16.888-76.05-65.094-69.071-114.626l1.966.276c-6.848 48.605 21.656 95.91 67.777 112.479 6.217 2.234 32.22 13.479 45.81 27.702l-1.436 1.374z" fill="#1166af"/><path d="M93.37 252.505c1.602 1.052 3.802 1.612 6.177 1.821 2.375.21 4.929.053 7.413-.592 5.092-1.53 8.47-4.44 9.658-7.305-1.551-.612-3.49-.882-5.677-.809-2.144-.023-4.499.2-6.98.828a27.343 27.343 0 0 0-6.552 2.546c-1.806.995-3.22 2.193-4.04 3.511zM111.28 222.49a13.208 13.208 0 0 1 3.277 3.433c1.011 1.529 1.891 3.49 2.588 5.731 1.497 4.239 1.839 8.676.743 11.579-1.484-.635-3.004-1.787-4.336-3.307-1.287-1.62-2.342-3.694-3.039-5.935-.684-2.266-.934-4.392-.746-6.397.191-2.01.734-3.76 1.512-5.103M74.623 238.702c.72.63 1.567 1.216 2.512 1.738.935.535 1.981.984 3.156 1.274 2.311.628 4.88.915 7.452.742 2.544-.131 4.87-.86 6.725-1.825 1.852-.96 3.25-2.169 4.11-3.461-2.926-1.619-7.299-2.7-12.453-2.354-2.603.214-4.853.507-6.848 1.18-1.975.649-3.6 1.565-4.654 2.706zM97.9 212.627c.501.465.958 1.051 1.37 1.744.401.704.77 1.497 1.154 2.309.725 1.667 1.25 3.716 1.52 6.037.24 2.36.303 4.533.068 6.503-.235 1.977-.762 3.734-1.58 5.053-2.792-1.64-4.957-5.837-5.509-10.442-.312-2.27.013-4.603.547-6.504.553-1.924 1.411-3.529 2.43-4.7M58.8 221.656c1.206 1.486 2.95 2.892 5.013 4.016 2.043 1.142 4.64 1.793 7.196 2.106 2.588.29 4.928.093 6.885-.457 1.996-.588 3.618-1.532 4.702-2.636-1.309-1.044-2.85-2.172-4.88-2.948-1.973-.826-4.415-1.34-6.883-1.73-4.933-.774-9.527-.186-12.033 1.649zM86.57 200.43c.84 1.082 1.424 2.6 1.734 4.452.292 1.868.553 3.864.377 6.196-.143 2.303-.572 4.529-1.22 6.467-.61 1.899-1.439 3.504-2.494 4.649-1.239-1.041-2.064-2.833-2.704-4.77-.589-1.988-.968-4.153-.718-6.548.492-4.798 2.582-8.532 5.025-10.446zM46.428 201.958c.922 1.676 2.42 3.36 4.268 4.836 1.846 1.477 4.034 2.745 6.609 3.458 5.048 1.5 9.43.904 11.977-.866-.947-1.37-2.399-2.667-4.248-3.808-.908-.582-1.985-1.084-3.016-1.614a27.123 27.123 0 0 0-3.359-1.416c-4.766-1.654-9.44-1.914-12.23-.59zM77.696 186.338c.638 1.21.973 2.784.964 4.642-.01 1.86-.373 4.012-.856 6.194-1.09 4.42-3.233 8.362-5.726 10.211-.877-1.357-1.502-3.167-1.77-5.188-.117-1.021-.216-2.052-.085-3.184a20.05 20.05 0 0 1 .676-3.42c1.32-4.583 4.023-7.83 6.797-9.255M38.115 180.211c.26.92.617 1.885 1.152 2.826a19.73 19.73 0 0 0 2.054 2.752 22.48 22.48 0 0 0 5.789 4.674c4.715 2.408 9.195 2.619 12.024 1.366-.704-1.512-1.926-3.04-3.565-4.494-1.49-1.514-3.397-2.958-5.62-4.211-4.527-2.472-8.807-3.697-11.834-2.913zM71.775 170.797c.165.663.193 1.413.188 2.211.032.785-.034 1.636-.194 2.541-.316 1.807-1.01 3.824-2.061 5.936-1.864 4.116-4.648 7.556-7.45 8.905-.641-1.482-.952-3.361-.87-5.38.227-2.08.85-4.294 1.892-6.4 2.005-4.197 5.538-6.95 8.495-7.813M34.04 157.276c.214 1.905.759 4.052 2.014 6.098a22.923 22.923 0 0 0 4.908 5.675 19.828 19.828 0 0 0 3.007 2.07 17.25 17.25 0 0 0 3.105 1.248c2.007.58 3.855.667 5.367.32-1.025-3.182-3.388-6.992-7.405-10.286a52.526 52.526 0 0 0-2.911-2.22 20.936 20.936 0 0 0-2.847-1.653c-1.88-.892-3.688-1.35-5.238-1.252zM68.878 154.446c.124 1.358-.37 2.965-.981 4.672-.617 1.703-1.644 3.548-3.043 5.413a28.216 28.216 0 0 1-2.22 2.616 21.755 21.755 0 0 1-2.23 2.149c-1.53 1.266-3.121 2.18-4.623 2.572-.915-3.11.472-7.656 3.203-11.362.67-.93 1.469-1.76 2.326-2.487.84-.725 1.703-1.34 2.567-1.846 1.727-1.01 3.455-1.582 5-1.727zM34.365 134.019c-.163 1.903.116 4.123.818 6.355.755 2.239 2.135 4.503 3.779 6.495 1.668 1.994 3.494 3.468 5.288 4.42 1.855.953 3.678 1.387 5.226 1.335-.232-1.658-.56-3.54-1.492-5.5-.87-1.96-2.228-4.017-3.812-6.006-3.01-3.96-6.727-6.7-9.806-7.1zM53.855 115.015c-1.454 1.24-2.816 3.013-3.886 5.094-1.038 2.124-1.651 4.703-1.882 7.275-.216 2.593.048 4.923.654 6.863.647 1.979 1.64 3.572 2.776 4.624 1.001-1.344 2.09-2.911 2.806-4.96.761-2.006 1.24-4.424 1.514-6.952.642-4.931-.073-9.495-1.982-11.944zM69.111 137.81c-.15 1.364-.787 2.864-1.855 4.421-1.014 1.557-2.257 3.177-3.98 4.746-1.697 1.565-3.547 2.879-5.355 3.834-1.75.954-3.458 1.545-5.011 1.644-.183-1.607.465-3.474 1.339-5.316.936-1.844 2.21-3.673 3.977-5.234 3.693-3.133 7.796-4.394 10.885-4.094zM169.763 272.734l-5.193 5.295s-17.082-21.698-44.09-31.88c0 0 29.698 6.134 49.283 26.585M15.23 351.412c2.338-.314 4.394-1.051 6.16-2.202 1.766-1.148 3.248-2.68 4.443-4.593 1.195-1.91 2.104-4.218 2.727-6.928.622-2.707.936-5.76.94-9.174.006-4.44-.573-8.1-1.741-11.018-1.167-2.918-2.88-5.102-5.134-6.541-2.252-1.438-5.018-2.166-8.29-2.146l-.332.009-.03 42.675c.501-.035.753-.05 1.257-.082zM1.926 362.808 1 354.885c1.72-.737 2.58-1.102 4.3-1.82.006-14.95.009-29.897.012-44.843-1.672-.251-2.507-.378-4.179-.635v-8.079l11.814-.005c4.82.34 9.59.906 13.836 3.217 3.448 1.874 7.118 5.76 8.78 9.35 2.21 4.787 3.042 10.307 3.024 15.58-.018 5.47-.8 11.12-2.58 16.261-1.365 3.944-4.445 8.505-7.637 11.166-3.63 3.027-8.046 4.354-12.62 5.448-4.611.74-9.218 1.499-13.824 2.283zM43.441 356.593c-.367-2.893-.55-4.344-.915-7.252 1.859-.637 2.788-.95 4.644-1.573.027-13.414.051-26.831.078-40.247-1.805-.197-2.705-.296-4.511-.499l.013-7.532c5.754-.004 11.506-.005 17.26-.006.39 2.972.586 4.452.979 7.411-2.018.413-3.03.621-5.047 1.043l-.083 39.2c1.964.196 2.944.293 4.908.492-.033 2.775-.049 4.163-.08 6.942a919.891 919.891 0 0 0-17.246 2.021zM78.997 327.483c.24-.01.358-.015.597-.028 3.452-.21 6.064-.766 7.838-1.673 1.77-.907 2.98-2.138 3.626-3.698.645-1.56.97-3.37.975-5.44.005-2.823-.743-5.05-2.245-6.697-1.5-1.646-3.867-2.458-7.098-2.415-1.459.018-2.19.029-3.65.048l-.043 19.903zm-12.47 26.478c-.368-2.676-.55-4.014-.915-6.698 1.86-.608 2.788-.908 4.648-1.502l.086-38.605-4.513-.487.016-7.187c5.532 0 11.062-.002 16.595-.004 3.14 0 5.885.408 8.227 1.21 2.343.804 4.287 1.955 5.835 3.448 1.545 1.493 2.705 3.295 3.474 5.405.77 2.11 1.153 4.482 1.147 7.12-.005 3.54-.709 6.657-2.108 9.376-1.4 2.719-3.51 4.893-6.323 6.534-2.814 1.64-6.348 2.586-10.596 2.83-1.25.072-1.872.107-3.121.182-.01 3.61-.012 5.417-.02 9.027 4.034.41 6.054.617 10.09 1.044-.163 2.532-.247 3.798-.412 6.333-7.378.59-14.745 1.245-22.11 1.974zM105.182 350.862l-.918-6.498a641.7 641.7 0 0 1 4.321-1.179l.064-36.599-4.18-.487.011-6.625c5.618-.002 11.237-.002 16.854-.002.395 2.663.592 3.995.988 6.655-1.993.42-2.99.63-4.981 1.058-.016 11.776-.035 23.553-.051 35.33 4.49-.173 6.735-.25 11.23-.377.985-2.912 1.48-4.365 2.465-7.265 2.1-.044 3.15-.066 5.249-.103l-1.41 14.824c-9.887.293-19.765.714-29.642 1.268zM158.293 341.988a7.187 7.187 0 0 0 4.22-1.33c1.261-.884 2.336-2.116 3.223-3.698.885-1.581 1.571-3.427 2.057-5.54.488-2.113.73-4.396.73-6.849-.002-2.452-.246-4.75-.734-6.89-.487-2.142-1.175-4.02-2.06-5.63-.885-1.612-1.96-2.874-3.22-3.79a7.02 7.02 0 0 0-4.216-1.368c-1.592 0-3.02.457-4.281 1.37-1.26.916-2.335 2.18-3.22 3.791-.886 1.614-1.573 3.492-2.06 5.634-.488 2.144-.732 4.442-.734 6.896-.002 2.454.243 4.738.727 6.849.488 2.113 1.174 3.96 2.058 5.54.887 1.581 1.961 2.812 3.224 3.695 1.26.883 2.691 1.323 4.286 1.32zm0 7.569c-3.147.003-5.93-.59-8.345-1.793-2.415-1.202-4.441-2.92-6.078-5.159-1.638-2.24-2.878-4.897-3.717-7.971-.838-3.073-1.257-6.447-1.254-10.116.003-3.716.426-7.11 1.268-10.18.843-3.068 2.086-5.725 3.722-7.968 1.639-2.242 3.665-3.979 6.077-5.206 2.412-1.227 5.187-1.839 8.328-1.839 3.14 0 5.906.612 8.295 1.84 2.388 1.224 4.404 2.959 6.04 5.2 1.64 2.24 2.88 4.897 3.724 7.961.843 3.064 1.266 6.458 1.269 10.169.003 3.665-.416 7.038-1.256 10.109-.838 3.074-2.078 5.73-3.716 7.972-1.639 2.243-3.653 3.961-6.047 5.17-2.394 1.206-5.165 1.807-8.31 1.81zM182.892 349.568l-.404-6.317c1.567-.197 2.352-.294 3.92-.486l-.037-36.03-3.65-.45c-.005-2.726-.005-4.09-.008-6.815 5.685 0 11.37 0 17.055.002 3.228 12.656 6.436 25.314 9.62 37.981a8201.463 8201.463 0 0 0 9.557-37.977l15.865.002c.404 2.847.608 4.275 1.012 7.131-1.46.351-2.19.527-3.65.874.028 12.505.055 25.011.08 37.515 1.357.307 2.035.463 3.39.775.005 2.667.009 4.002.013 6.668-4.694-.377-9.386-.732-14.083-1.063l-.61-6.797 2.92-.805-.076-37.218a7644.049 7644.049 0 0 1-11.008 43.3c-3.562-.205-5.34-.298-8.902-.468-3.604-14.19-7.233-28.372-10.888-42.55l.046 35.895c1.221.36 1.835.541 3.057.906l.076 6.365a845.53 845.53 0 0 0-13.294-.438zM254.056 328.605c3.213.176 4.82.269 8.03.462a9083.923 9083.923 0 0 0-3.557-18.247c-1.483 5.93-2.973 11.859-4.473 17.785zm-14.549 24.165c-.35-2.437-.526-3.654-.878-6.084 1.46-.44 2.19-.662 3.65-1.106a4434.982 4434.982 0 0 0 13.04-46.096l8.232.002a3760.812 3760.812 0 0 1 13.43 49.372c1.22.731 1.831 1.1 3.053 1.845-.26 2.577-.392 3.862-.653 6.43a929.559 929.559 0 0 0-17.24-2.101c-.005-2.412-.009-3.618-.012-6.029 2.12-.463 3.181-.695 5.301-1.162-.962-4.062-1.443-6.083-2.406-10.104-4.333-.347-8.67-.67-13.008-.969-1 3.905-1.5 5.846-2.5 9.715 2.338.702 3.506 1.059 5.843 1.784.005 2.413.01 3.62.014 6.03a921.92 921.92 0 0 0-15.866-1.527zM286.67 358.12l-.671-6.87c3.046-.37 4.569-.556 7.617-.934l-.053-41.759c-2.999-.067-4.498-.101-7.498-.165a1834.726 1834.726 0 0 1-2.84 8.357c-2.044-.084-3.065-.125-5.108-.202.412-5.685.821-11.37 1.23-17.055 12.28.004 24.56.009 36.84.016.487 6.245.974 12.49 1.459 18.735-2.015-.103-3.023-.154-5.04-.255a1589.057 1589.057 0 0 0-2.92-9.043c-3.025-.078-4.539-.116-7.564-.188l.037 42.663a450.16 450.16 0 0 1 7.68 3.033l-.658 7.085a1200.622 1200.622 0 0 0-22.51-3.419zM42.24 399.346c-1.522 0-2.877-.308-4.061-.923a6.916 6.916 0 0 1-2.79-2.611c-.676-1.122-1.015-2.434-1.015-3.932v-15.404l-2.101-.143v-2.176h6.415l.145 2.03-1.993.29v15.004c0 1.717.493 3.052 1.485 4.006.99.953 2.368 1.43 4.133 1.43 1.014 0 1.943-.18 2.789-.543.846-.361 1.528-.943 2.05-1.739.517-.798.778-1.85.778-3.154v-15.005l-2.066-.143v-2.176h6.162l.144 2.03-1.993.29v15.403c0 1.57-.362 2.918-1.087 4.04a6.966 6.966 0 0 1-2.917 2.556c-1.222.58-2.58.87-4.078.87zM63.876 399.201l-.29-2.03 2.103-.435v-20.26l-2.103-.18v-2.139h6.053l9.787 22.325V376.55l-2.321-.361v-2.03h6.452l.361 2.03-2.21.434v22.58h-3.806l-9.966-22.798v20.405l2.429.362v2.03h-6.489zM95.734 399.201l-.145-2.03 1.957-.289v-20.406l-2.066-.143v-2.176h6.38l.144 2.03-1.956.29v20.405l2.066.145v2.174h-6.38zM121.033 399.201l-7.358-22.687-1.304-.653v-1.704h7.14v1.594l-3.19.763 6.052 18.664 6.197-18.774-3.297-.615v-1.632h7.102v1.704l-1.448.653-7.538 22.687zM142.67 399.201l-.254-2.03 2.066-.435v-20.26l-2.066-.18v-2.139h14.424l.725 6.197h-1.74l-1.231-3.732h-7.612v8.915h5.873v2.284h-5.873v8.915h7.973l1.27-3.732h1.703l-.689 6.197h-14.57zM173.911 387.168h1.958c1.207 0 2.324-.15 3.35-.452 1.028-.301 1.86-.845 2.503-1.631.64-.785.96-1.878.96-3.28 0-1.233-.266-2.23-.797-2.99-.532-.762-1.257-1.318-2.174-1.666-.92-.352-1.958-.527-3.12-.527h-2.68v10.546zm-4.314 12.033-.253-1.993 2.065-.472v-20.26l-2.065-.18v-2.14h6.306c1.86 0 3.517.267 4.966.8 1.45.531 2.585 1.358 3.408 2.482.82 1.123 1.23 2.567 1.23 4.331 0 1.957-.525 3.52-1.576 4.693-1.05 1.173-2.35 2.011-3.896 2.518l3.697 7.866 2.357.507v1.848h-4.28l-4.347-9.64c-.459.024-.93.042-1.415.054-.482.013-1.11.018-1.883.018v7.03l2.827.69v1.848zM203.485 399.346c-1.04 0-2.084-.09-3.135-.272a11.295 11.295 0 0 1-2.954-.924l-.399-5.58h2.103l.979 3.587c.457.217 1.007.393 1.648.526.64.133 1.226.2 1.758.2.846 0 1.662-.152 2.447-.455a4.535 4.535 0 0 0 1.94-1.396c.507-.628.76-1.423.76-2.392 0-.627-.09-1.2-.272-1.72-.182-.52-.496-1.004-.943-1.45-.447-.447-1.08-.876-1.902-1.288a55.275 55.275 0 0 0-2.936-1.357 17.332 17.332 0 0 1-2.754-1.469 6.938 6.938 0 0 1-2.048-2.03c-.519-.796-.78-1.787-.78-2.972 0-1.28.338-2.384 1.016-3.315.675-.93 1.576-1.644 2.7-2.138 1.122-.496 2.337-.744 3.642-.744 1.014 0 1.976.108 2.882.327.904.218 1.805.495 2.7.833l.47 5.581h-1.993l-1.523-3.842a5.373 5.373 0 0 0-1.376-.38 11.493 11.493 0 0 0-1.45-.09c-.725 0-1.431.126-2.12.38a4.04 4.04 0 0 0-1.703 1.16c-.449.519-.672 1.167-.672 1.938 0 .8.188 1.475.562 2.031a4.68 4.68 0 0 0 1.486 1.394c.617.376 1.287.713 2.012 1.017.725.3 1.438.609 2.138.923 1.474.677 2.597 1.39 3.371 2.138.773.749 1.31 1.522 1.614 2.32.301.798.452 1.619.452 2.464 0 1.112-.205 2.096-.617 2.954a6.437 6.437 0 0 1-1.702 2.194 7.691 7.691 0 0 1-2.482 1.376c-.931.316-1.905.471-2.92.471zM223.056 399.201l-.144-2.03 1.957-.289v-20.406l-2.065-.143v-2.176h6.377l.145 2.03-1.957.29v20.405l2.066.145v2.174h-6.379zM244.006 399.201v-1.883l4.095-.654v-20.042h-4.966l-1.413 3.516h-1.667l.834-5.98h16.854l.833 5.98h-1.667l-1.416-3.516h-4.927v20.042l4.167.654v1.883h-10.727zM271.949 399.201l-.364-1.883 4.206-.654v-6.778l-6.778-13.227-1.559-.326v-2.176h6.598v1.92l-2.285.364 5.509 10.8 5.074-10.837-2.21-.29v-1.957h6.233v2.176l-1.558.362-6.56 13.698v6.271l4.168.654-.327 1.883H271.95z" fill="#1166af"/></g></svg>