<svg xmlns="http://www.w3.org/2000/svg" width="853.643" height="853.643" viewBox="0 0 640.232 640.232"><g data-name="Слой 1"><path d="M92.788 411.904v135.54h135.54l91.788 91.788 91.788-91.788h135.54v-135.54l91.788-91.788-91.788-91.788V92.788h-135.54L320.116 1l-91.788 91.788H92.788v135.54L1 320.116z" fill="#fff"/><path d="M206.808 363.005c-4.805 0-8.59-1.447-11.362-4.348-2.773-2.894-4.156-6.857-4.156-11.882 0-5.025 1.383-8.988 4.156-11.882 2.773-2.9 6.557-4.348 11.362-4.348 4.797 0 8.588 1.447 11.368 4.348 2.773 2.894 4.163 6.857 4.163 11.882 0 5.025-1.39 8.988-4.163 11.882-2.78 2.901-6.571 4.348-11.368 4.348zm0-3.079c2.622 0 4.725-1.205 6.315-3.606 1.582-2.403 2.373-5.589 2.373-9.545 0-3.97-.79-7.156-2.374-9.55-1.589-2.403-3.692-3.6-6.315-3.6-2.615 0-4.711 1.197-6.3 3.6-1.583 2.394-2.374 5.58-2.374 9.55 0 3.97.791 7.156 2.374 9.552 1.589 2.402 3.685 3.599 6.3 3.599zm32.657-10.906v10.136h2.566v3.08h-11.846v-3.08h3.08v-24.762h-3.08v-3.079H243.5c3.328 0 5.887.67 7.684 2.017 1.796 1.34 2.694 3.25 2.694 5.731 0 2.103-.5 3.885-1.49 5.346-.998 1.461-2.495 2.601-4.497 3.407l8.132 11.34h2.046v3.08h-7.919l-8.304-13.216zm0-2.95h1.084c2.36 0 4.12-.557 5.289-1.661 1.169-1.112 1.753-2.773 1.753-4.99 0-1.675-.506-2.929-1.51-3.77-1.013-.834-2.531-1.255-4.549-1.255h-2.067zm35.068-11.676v24.762h3.079v3.08h-12.616v-3.08h3.079v-24.762h-3.08v-3.079h12.617v3.08zm33.94 27.841H285.08v-3.079h3.08v-24.762h-3.08v-3.079h22.41v6.159h-3.336v-3.08h-9.537v10.307h6.458v-2.053h3.079v7.185h-3.079v-2.053h-6.458v11.12h10.52v-3.336h3.336zm29.893.3-15.382-21.99v18.611h3.08v3.08H315.67v-3.08h3.08v-24.762h-3.08v-3.079h7.477l15.403 22.089v-19.01h-3.079v-3.079h10.392v3.08h-3.079v28.14zm25.751-27.884h-7.869v3.336h-3.336v-6.672h28.868v6.672h-3.336v-3.336h-7.87v24.505h3.08v3.08h-12.616v-3.08h3.079zm31.632 18.646-2.31 5.86h3.1v3.078h-8.381v-3.079h1.881l11.113-28.226h4.754l11.176 28.226h1.825v3.08H407.36v-3.08h3.1l-2.337-5.859zm1.261-3.207h9.837l-4.94-12.445zm51.932 12.145H425.42v-3.079h3.08v-24.762h-3.08v-3.079h12.617v3.08h-3.08V358.9h10.65v-3.336h3.335zM143.925 387.519h-3.079v-3.08h12.616v3.08h-3.079v16.208c0 3.258.528 5.631 1.59 7.107 1.062 1.475 2.765 2.216 5.11 2.216 2.274 0 3.885-.72 4.833-2.152.948-1.44 1.426-3.864 1.426-7.278V387.52h-3.08v-3.08h10.82v3.08h-3.079v15.531c0 2.659-.214 4.697-.634 6.109-.428 1.418-1.205 2.722-2.331 3.92-1.96 2.031-4.847 3.05-8.653 3.05-4.234 0-7.363-1.026-9.402-3.072-2.038-2.045-3.058-5.196-3.058-9.444zm56.814 28.14-15.381-21.99v18.611h3.079v3.08h-10.392v-3.08h3.079V387.52h-3.08v-3.08h7.477l15.404 22.09v-19.01h-3.08v-3.08h10.393v3.08h-3.08v28.14zm24.511-28.14v24.761h3.08v3.08h-12.617v-3.08h3.08V387.52h-3.08v-3.08h12.617v3.08zm23.328 28.226-11.433-28.226h-1.818v-3.08h11.847v3.08h-3.072l7.626 18.717 7.485-18.717h-3.058v-3.08h8.34v3.08h-1.818l-11.006 28.226zm46.15-.385h-23.392v-3.08h3.079V387.52h-3.08v-3.08h22.41v6.159h-3.336v-3.08h-9.536v10.308h6.457v-2.053h3.08v7.184h-3.08v-2.052h-6.457v11.119h10.52v-3.336h3.336zm16.479-13.215v10.135h2.566v3.08h-11.846v-3.08h3.079V387.52h-3.08v-3.08h13.315c3.329 0 5.888.67 7.684 2.018 1.796 1.34 2.694 3.25 2.694 5.73 0 2.103-.499 3.885-1.49 5.346-.997 1.462-2.494 2.602-4.497 3.407l8.133 11.34h2.045v3.08h-7.918l-8.305-13.215zm0-2.951h1.083c2.36 0 4.12-.556 5.29-1.66 1.168-1.113 1.752-2.774 1.752-4.99 0-1.675-.506-2.93-1.51-3.77-1.013-.835-2.53-1.255-4.548-1.255h-2.067zm26.129 15.71v-6.857h3.592v3.229c1.034.627 2.003 1.097 2.916 1.418.919.32 1.767.485 2.565.485 1.547 0 2.795-.42 3.743-1.262.947-.848 1.425-1.953 1.425-3.315 0-1.297-.3-2.352-.898-3.157-.613-.791-1.775-1.66-3.485-2.609l-2.067-1.133c-2.802-1.547-4.79-3.044-5.974-4.49-1.183-1.433-1.774-3.073-1.774-4.912 0-2.537.92-4.611 2.75-6.215 1.84-1.61 4.206-2.416 7.1-2.416 1.511 0 3.015.107 4.512.313a30.48 30.48 0 0 1 4.455.963v6.25h-3.593v-2.95c-.876-.542-1.724-.948-2.544-1.22a7.606 7.606 0 0 0-2.395-.405c-1.183 0-2.188.42-3.015 1.254-.827.834-1.24 1.853-1.24 3.05 0 .97.3 1.804.898 2.502.598.713 1.725 1.54 3.378 2.488l2.082 1.212c3.008 1.725 5.075 3.286 6.215 4.676 1.14 1.404 1.71 3.079 1.71 5.01 0 2.83-1.047 5.09-3.15 6.78-2.102 1.688-4.903 2.537-8.396 2.537-1.29 0-2.673-.107-4.142-.314a48.27 48.27 0 0 1-4.668-.912zm37.462-27.385v24.761h3.08v3.08H365.26v-3.08h3.08V387.52h-3.08v-3.08h12.616v3.08zm21.325.256h-7.87v3.336h-3.335v-6.672h28.867v6.672h-3.336v-3.336h-7.868v24.505h3.079v3.08h-12.616v-3.08h3.079zm48.033 27.585h-23.394v-3.08h3.08V387.52h-3.08v-3.08h22.41v6.159h-3.336v-3.08h-9.537v10.308h6.458v-2.053h3.079v7.184h-3.079v-2.052h-6.458v11.119h10.52v-3.336h3.337zm17.974-27.585h-7.869v3.336h-3.336v-6.672h28.868v6.672h-3.336v-3.336h-7.869v24.505h3.08v3.08H459.05v-3.08h3.08zm34.177-.256v24.761h3.079v3.08H486.77v-3.08h3.08V387.52h-3.08v-3.08h12.616v3.08zM255.809 484.274h-4.574v1.939h-1.939v-3.878h16.778v3.878h-1.939v-1.94h-4.573v14.243h1.79v1.79h-7.333v-1.79h1.79zm15.994 10.837-1.342 3.405h1.802v1.79h-4.872v-1.79h1.094l6.458-16.404h2.763l6.496 16.404h1.06v1.79h-6.71v-1.79h1.801l-1.358-3.405zm.733-1.864h5.717l-2.87-7.233zm14.47 6.794v-3.985h2.088v1.876c.601.365 1.164.638 1.695.824.534.187 1.027.282 1.491.282.899 0 1.624-.244 2.175-.733.55-.493.828-1.135.828-1.926 0-.754-.173-1.367-.522-1.835-.356-.46-1.031-.966-2.025-1.517l-1.202-.658c-1.628-.9-2.783-1.77-3.471-2.61a4.359 4.359 0 0 1-1.032-2.855c0-1.474.535-2.68 1.6-3.612 1.068-.936 2.443-1.404 4.126-1.404.878 0 1.752.062 2.622.182.87.12 1.731.307 2.589.56v3.632h-2.088v-1.714a7.029 7.029 0 0 0-1.479-.709 4.42 4.42 0 0 0-1.392-.236c-.688 0-1.272.244-1.752.73a2.425 2.425 0 0 0-.72 1.772c0 .563.173 1.048.521 1.454.348.414 1.003.895 1.964 1.446l1.21.704c1.747 1.003 2.949 1.91 3.611 2.718.663.816.995 1.79.995 2.912 0 1.644-.61 2.958-1.831 3.94-1.222.981-2.85 1.474-4.88 1.474-.75 0-1.554-.062-2.407-.182-.854-.12-1.76-.298-2.714-.53zm19.384-8.211v6.686h1.79v1.79h-7.333v-1.79h1.79v-14.391h-1.79v-1.79h7.333v1.79h-1.79v5.915h7.233v-5.915h-1.79v-1.79h7.333v1.79h-1.79v14.391h1.79v1.79h-7.333v-1.79h1.79v-6.686zm14.748 8.476v-1.79h1.789v-14.391h-1.79v-1.79h6.885v1.79h-1.491l.025 6.831 6.359-6.831h-1.541v-1.79h5.199v1.79h-1.206l-5.609 6.027 6.877 8.364h1.355v1.79h-6.865v-1.79h1.206l-5.775-7.026-.025 7.026h1.491v1.79zm31.972 0h-13.596v-1.79h1.79v-14.391h-1.79v-1.79h13.024v3.58H350.6v-1.79h-5.542v5.99h3.753v-1.193h1.79v4.176h-1.79v-1.194h-3.753v6.463h6.114v-1.939h1.939zm14.984.174-8.94-12.78v10.816h1.79v1.79h-6.04v-1.79h1.79v-14.391h-1.79v-1.79h4.345l8.952 12.838v-11.048h-1.79v-1.79h6.04v1.79h-1.789v16.355zm12.577-16.206h-4.574v1.939h-1.939v-3.878h16.778v3.878h-1.939v-1.94h-4.573v14.243h1.79v1.79h-7.333v-1.79h1.79zM282.096 540.22v-2.25c.75-1.862 2.225-3.838 4.434-5.928l1.758-1.67c1.537-1.454 2.607-2.685 3.207-3.689.606-1.008.905-2.069.905-3.191 0-1.236-.336-2.214-1.008-2.943-.678-.73-1.583-1.092-2.731-1.092-.657 0-1.283.098-1.883.29-.6.191-1.164.48-1.702.874l-.186 2.002h-2.421v-4.102a21.034 21.034 0 0 1 3.486-.973 18.979 18.979 0 0 1 3.492-.326c2.312 0 4.174.564 5.587 1.692 1.412 1.122 2.115 2.607 2.115 4.443 0 1.355-.33 2.525-.993 3.508-.662.987-1.857 2.09-3.585 3.31l-1.64 1.154c-2.68 1.877-4.086 3.59-4.23 5.136h10.355v3.755zm28.523.56c-2.597 0-4.697-1.087-6.3-3.254-1.599-2.168-2.4-4.997-2.4-8.494 0-3.528.801-6.378 2.4-8.55 1.603-2.173 3.703-3.26 6.3-3.26 2.591 0 4.692 1.087 6.285 3.26 1.598 2.172 2.395 5.022 2.395 8.55 0 3.497-.802 6.326-2.4 8.494-1.604 2.167-3.699 3.253-6.28 3.253zm-.01-2.235c1.319 0 2.307-.797 2.958-2.39.657-1.594.983-3.978.983-7.154 0-3.187-.33-5.576-.998-7.165-.662-1.588-1.66-2.379-2.99-2.379-1.298 0-2.27.791-2.923 2.38-.646 1.588-.972 3.977-.972 7.164 0 3.176.331 5.56.988 7.154.662 1.593 1.645 2.39 2.954 2.39zm12.621 1.676v-2.25c.75-1.863 2.224-3.839 4.433-5.929l1.759-1.67c1.536-1.454 2.607-2.685 3.207-3.689.605-1.008.905-2.069.905-3.191 0-1.236-.336-2.214-1.009-2.943-.677-.73-1.582-1.092-2.73-1.092-.658 0-1.284.098-1.884.29a5.91 5.91 0 0 0-1.702.874l-.186 2.002h-2.42v-4.102a21.033 21.033 0 0 1 3.486-.973 18.979 18.979 0 0 1 3.492-.326c2.312 0 4.174.564 5.586 1.692 1.412 1.122 2.116 2.607 2.116 4.443 0 1.355-.331 2.525-.993 3.508-.663.987-1.857 2.09-3.585 3.31l-1.64 1.154c-2.68 1.877-4.086 3.59-4.231 5.136h10.356v3.755zm31.15-22.626v20.39h3.756v2.236h-12.012v-2.235h3.756v-17.194l-3.756.765v-2.28z" fill="#01a452"/><path d="m320.116 15.667 304.45 304.45-304.45 304.448L15.667 320.116zm91.788 77.121L320.116 1l-91.788 91.788-11.357 11.357L104.145 216.97l-11.357 11.357L1 320.116l91.788 91.788 11.357 11.357L216.97 536.088l11.357 11.356 91.788 91.788 91.788-91.788 11.357-11.356L536.088 423.26l11.356-11.357 91.788-91.788-91.788-91.788-11.356-11.357L423.26 104.145z" fill="#01a452" fill-rule="evenodd"/><path d="M613.35 320.116 320.116 26.883 26.883 320.116 320.116 613.35zM320.116 33.721l215.972 215.971 11.356 11.357 59.068 59.067-59.068 59.068-11.356 11.356L390.54 536.088l-11.356 11.356-59.068 59.068-59.067-59.068-11.357-11.356L104.145 390.54l-11.357-11.356-59.067-59.068 59.067-59.067 11.357-11.357zM104.145 104.145H216.97l11.357-11.357H92.788v135.54l11.357-11.357zM411.904 92.788l11.357 11.357h112.827V216.97l11.356 11.357V92.788zM104.145 423.261l-11.357-11.357v135.54h135.54l-11.357-11.356H104.145zM536.088 423.261v112.827H423.26l-11.357 11.356h135.54v-135.54z" fill="#01a452" fill-rule="evenodd"/><path d="m320.116 284.536 9.522 12.672-9.522 12.673-9.521-12.673z" fill="#01a452" fill-rule="evenodd"/><path d="M117.907 301.306v3.427h147.556c23.82 0 39.676-18.362 54.653-33.339 14.977 14.977 30.834 33.339 54.654 33.339h147.555v-3.427c-32.918-4.111-34.682-43.536-34.682-43.536H152.59s-1.765 39.425-34.683 43.536zm15.903-.825h131.653c24.994 0 37.7-20.44 54.722-34.382 16.702 14.132 29.93 34.382 54.585 34.382h131.652c-7.8-4.511-13.69-11.645-17.67-20.68-2.255-5.121-4.178-11.74-4.986-17.779h-327.3c-.808 6.04-2.73 12.658-4.986 17.78-3.98 9.034-9.87 16.168-17.67 20.679zm36.028-21.709H275.04v4.683H169.838zm300.556 0H365.192v4.683h105.202zM298.733 137.9a147.936 147.936 0 0 1 19.007-1.525v97.712zm-4.694.762 18.802 95.153-36.388-90.86a145.482 145.482 0 0 1 17.586-4.293zm-22.11 5.783 37.498 93.629-56.894-85.254a144.75 144.75 0 0 1 19.397-8.375zm-23.592 10.652 54.76 82.056-69.44-72.56c4.68-3.446 9.582-6.62 14.68-9.496zm-18.485 12.396 69.688 72.817-82.964-60.941a143.729 143.729 0 0 1 13.276-11.876zm-16.585 15.342 81.911 60.17-92.575-47.155a142.27 142.27 0 0 1 10.663-13.015zm-23.464 34.451 101.713 34.026-108.358-17.632a138.33 138.33 0 0 1 6.645-16.394zm-8.08 20.976 119.889 19.508h37.008l119.89-19.508a137.78 137.78 0 0 1 4.233 19.508h5.448c-9.79-71.534-72.355-126.7-148.075-126.7-75.72 0-138.284 55.166-148.075 126.7h5.448a137.752 137.752 0 0 1 4.233-19.508zm18.13-38.479 90.673 46.186-98.565-32.973a140.213 140.213 0 0 1 7.892-13.213zm122.64-63.408c6.447.102 12.792.62 19.006 1.525l-19.006 96.187zm4.899 97.44 18.802-95.153c6 1.075 11.87 2.514 17.585 4.293zm3.414 4.259 37.497-93.629a144.718 144.718 0 0 1 19.397 8.375zm6.329-.92 54.76-82.057c5.099 2.876 10.001 6.05 14.681 9.496zm3.558 3.156 69.687-72.817a143.896 143.896 0 0 1 13.276 11.875zm4.361 2.694 81.912-60.169c3.807 4.124 7.37 8.47 10.663 13.015zm4.652 2.965 90.674-46.186c2.864 4.25 5.5 8.66 7.891 13.213zm-.99 5.343 101.714-34.026a138.451 138.451 0 0 1 6.645 16.394z" fill="#01a452" fill-rule="evenodd"/></g></svg>