<svg xmlns="http://www.w3.org/2000/svg" width="856" height="856" viewBox="0 0 642 642"><g data-name="Слой 1"><path d="M321 79.905c133.153 0 241.095 107.942 241.095 241.095 0 133.153-107.942 241.096-241.095 241.096-133.153 0-241.095-107.943-241.095-241.096C79.905 187.847 187.847 79.905 321 79.905" fill="#fff" fill-rule="evenodd"/><path d="M321 1c176.73 0 320 143.27 320 320S497.73 641 321 641 1 497.73 1 321 144.27 1 321 1zm0 78.905c133.153 0 241.095 107.942 241.095 241.095 0 133.153-107.942 241.095-241.095 241.095-133.153 0-241.094-107.942-241.094-241.095C79.906 187.847 187.847 79.905 321 79.905" fill="#133654" fill-rule="evenodd"/><path d="M249.57 345.786c-3.812-1.86-6.199-2.508-9.622-4.547-5.462-3.267-11.177-6.538-16.145-10.51-1.552-1.238-3.253-2.162-4.81-3.39-7.75-6.122-17.319-15.758-22.982-23.05-1.017-1.309-1.737-2.865-2.727-4.094-4.372-5.426-10.827-16.752-13.459-23.65-.203-.53-.243-1.154-.446-1.675-9.576-24.587-12.672-51.927-3.655-76.628 5.867-14.543 8.753-17.697 19.209-29.379 3.045-3.402 14.452-11.444 18.7-13.745 8.296-4.496 9.677-4.784 16.95-7.236 2.947-.993-2.462 2.295-2.868 2.55-3.258 2.055-16.212 16.022-18.427 20.186-2.002 3.763-4.883 7.683-6.992 12.013-6.09 12.505-7.21 18.76-8.561 31.496-1.245 11.74.443 27.7 3.91 38.957 3.512 11.4 11.91 32.54 18.6 42.811l10.89 16.416c12.68 15.132 12.515 15.471 28.319 29.33l14.921 10.2c2.787 1.767 6.709 3.316 4.469 2.891-7.76-1.473-18.837-5.806-25.273-8.946zm35.271 164.716c-.914 2.121-1.29 4.332-1.997 6.542-2.135 6.67-3.532 13.056-4.186 19.169-.12 1.144-.3 1.154-.535.026-2.668-12.893-3.531-25.387 2.666-37.237 2.451-4.688 4.266-7.023 8.088-10.294 8.256-7.067 18.847-9.978 17.246-8.632-3.213 2.683-6.13 5.595-8.61 9.056-1.609 2.245-3.438 4.102-4.92 6.475-2.88 4.623-5.466 9.587-7.752 14.895zm-16.273-52.517c-9.66 8.919-27.416 2.696-26.14 1.998 9.717-5.312 11.012-7.041 19.996-13.194 4.516-3.092 12.29-12.08 15-15.65 3.295-4.339 4.575-9.602 4.31-6.502-1.093 12.81-4.034 24.911-13.166 33.348zm91.548-29.25c-.082-.685-1.087-6.9-.04-4.416 2.943 6.975 9.25 13.521 14.387 18.674 4.813 4.827 18.151 13.601 24.597 17.079 1.404.752-16.015 6.58-25.582-1.494-8.81-7.436-12.041-18.915-13.362-29.844zm34.224 7.244c-7.265-3.35-17.059-10.295-21.715-16.473-.038-.05-10.48-11.07-7.93-9.653 4.149 2.304 11.285 6.091 15.97 7.598 2.682.862 4.322 1.4 4.914 1.626 16.234 6.113 34.003 9.618 51.722 10.307 1.413.047-5.995 4.827-6.803 5.282-11.699 6.608-23.752 7.045-36.158 1.313zm-180.835-.146c-.577-.286-11.676-6.592-8.964-6.652 15.25-.335 36.371-4.34 50.585-9.958 2.515-.995 5.1-1.551 7.594-2.595 4.592-1.922 9.18-4.194 13.772-6.806.756-.429.866-.305.327.38-6.383 8.121-14.637 16.736-22.855 22.1-4.292 2.801-12.694 6.36-18.652 7.182-7.545 1.038-14.815-.181-21.807-3.651zm171.53-36.018c-6.373-2.908-10.112-4.738-11.213-5.485-6.373-4.326-7.685-3.353 1.167-1.998 22.78 3.49 49.341 3.073 71.31-2.581l10.396-2.541c9.56-3.015 18.59-6.993 27.09-11.93 3.467-2.014 4.316-2.04 7.876-4.481 2.227-1.528-7.007 11.781-12.743 16.946-1.546 1.392-2.925 2.916-4.526 4.265-3.477 2.922-12.514 9.642-17.228 11.16-3.802 1.224-6.733 2.69-10.949 3.85-16.213 4.457-33.252 2.793-49.422-2.807-6.287-2.176-3.811-.772-11.757-4.398zm-127.889-.402c-2.837 1.286-5.706 2.723-8.578 3.532l-3.682 1.034c-18.472 6.613-38.587 7.784-56.889.384-7.79-3.15-6.213-2.012-14.532-7.704-9.75-6.67-16.304-14.672-23.072-24.437l-.442-1.662 15.775 8.8c5.436 2.705 17.724 7.927 24.764 9.114 2.418.406 4.853 1.25 7.302 1.781 22.05 4.756 44.5 5.375 66.643 2.245 4.312-.61 9.9-2.319 7.368-.773-4.425 2.705-9.313 5.268-14.657 7.686zm36.35-79.058c-7.16 4.079-15.289 3.831-23.2.902-1.477-.578 5.663-.087 15.2-5.021 6.185-3.201 7.745-3.466 13.723-8.438 3.055-2.542 6.02-5.017 8.902-7.434 1.255-1.053 2.776-1.79 4.163-2.745 9.781-6.73 22.157-9.577 33.786-6.267 1.213.345-.72.7-2.926 2.505-2.506 2.051-4.57 3.96-6.183 5.724-8.295 9.07-7.709 25.52-3.316 36.128 1.917 4.628 5.526 10.524 8.275 15.969.954 1.887 1.525 3.855 2.515 5.662 5.42 9.873 10.047 22.946 11.054 34.449.259 2.956.825 3.735.623 7.173-.886 15.096-6.02 27.443-13.94 39.788-5.127 7.35-9.027 10.633-15.275 16.923-3.985 4.012-17.312 12.58-22.78 15.461l-32.182 16.102c-10.157 4.613-25.456 9.04-35.553 11.27-3.097.686 13.836-7.304 16.238-8.88 4.863-3.188 12.765-7.504 16.924-10.792 1.445-1.145 3.183-1.843 4.708-2.935 6.083-4.354 20.283-15.56 24.822-21.308 6.643-8.416 10.338-11.585 13.723-23.479 1.934-6.792 2.115-21.098-.057-28.106-2.82-9.098-7.778-16.859-15.439-22.873-8.486-6.66-13.53-1.546-2.113-7.34.96-.487 1.963-1.26 3.002-2.326 7.853-8.046 7.44-13.358 6.506-23.226-.33-3.488-4.661-15.207-5.433-13.826-1.97 3.528-9.309 9.192-13.511 10.184-3.21.757-4.205 1.784-9 1.494-2.622-.16 3.414-.973 6.945-6.069 4.585-6.617 7.296-10.412 9.993-18.51.075-.226.013-.278-.194-.16zm70.05 55.261 21.3-3.014c12.932-3.05 24.945-7.182 36.04-12.398 3.447-1.623 6.878-2.81 10.43-4.928 11.041-6.583 23.403-14.03 32.292-23.217 2.01-2.078 4.327-3.753 6.351-5.866 2.864-2.992 5.525-5.785 7.894-9.144 1.432-2.029 3.213-3.673 4.68-5.675 8.947-12.217 9.548-14.54 16.125-26.993 1.846-3.496 7.044-15.484 8.084-20.07a49.852 49.852 0 0 1 1.108-4.102c2.53-7.943 4.606-16.614 6.237-26.015.559-3.24 2.916 16.42 3.16 20.671 1.293 22.509-1.928 42.416-11.359 63.24-4.348 8.698-8.858 14.321-14.908 21.684-2.663 3.24-11.589 10.353-14.409 12.539-3.182 2.466-6.983 4.902-10.82 6.577-2.033.884-3.863 2.157-5.86 3.076-12.054 5.56-25.653 9.927-38.983 11.62-11.695 1.486-16.929 2.35-30.657 2.74-3.34.095-24.32.26-26.718-.627-.146-.054-.142-.085.013-.098zm-85.891.036c-14.741 1.555-39.436.464-53.967-1.817-2.532-.398-5.07-.504-7.585-.981-11.848-2.255-27.395-7.029-37.772-12.826-6.748-3.77-7.142-3.004-14.842-9.123-10.929-8.685-13.83-11.735-21.856-23.019-4.376-6.152-8.297-15.134-10.815-22.369-7.468-21.45-8.649-48.72-3.518-71.536.127-.57.242-.565.344.01 1.604 9.383 3.783 18.364 6.537 26.947.654 2.042.942 4.199 1.688 6.152 4.506 11.796 6.773 16.886 11.713 25.817l3.664 6.71c3.276 5.07 6.683 10.488 10.767 15.018 1.684 1.865 2.952 4.005 4.641 5.897 6.862 7.682 16.438 16.45 23.735 21.873 1.016.756 2.347 1.406 3.5 2.29 10.244 7.85 21.355 13.145 32.844 18.086 18.53 7.694 31.76 10.827 50.922 12.694.575.057.575.115 0 .176zm113.847-28.96c-7.073 3.291-15.87 6.479-23.297 8.107-3.077.674.959-.859 3.518-2.475l15.73-10.803c4.782-4.59 11.993-10.077 16.26-15.138 2.627-3.113 11.884-13.4 13.376-16.026l6.766-10.338c.491-.778 1.11-1.467 1.6-2.268 8.25-13.452 19.945-39.9 21.857-53.555 2.96-21.134 3.023-22.232-.16-42.913-.936-6.087-6.002-17.779-9.414-23.32l-7.527-11.739c-2.497-2.731-12.276-13.667-15.377-15.69-.749-.488-3.999-2.333-3.451-2.625l10.634 3.858c7.78 3.511 12.973 7.182 19.951 12.336 6.501 4.802 16.552 16.01 19.894 22.957a611.431 611.431 0 0 0 1.914 3.965c13.122 24.769 9.953 58.36-.226 83.681-1.144 2.847-1.895 5.697-3.434 8.442-3.218 5.733-6.01 11.545-10.373 16.906-1.446 1.781-2.462 3.757-3.868 5.516-7.08 8.872-7.378 7.904-14.554 15.496-1.485 1.571-7.09 6.256-10.498 8.42-2.02 1.286-3.717 2.9-5.688 4.234-10.504 7.117-13.667 8.331-23.633 12.973" fill="#761713"/><path d="M321 79.905c133.153 0 241.095 107.942 241.095 241.095 0 133.153-107.942 241.096-241.095 241.096-133.153 0-241.095-107.943-241.095-241.096C79.905 187.847 187.847 79.905 321 79.905zm0 9.11c128.122 0 231.987 103.863 231.986 231.985 0 128.122-103.864 231.987-231.986 231.986-128.122 0-231.987-103.864-231.986-231.986C89.014 192.878 192.878 89.014 321 89.014" fill="#fdc017" fill-rule="evenodd"/><path d="M321.106 259.47c-11.298-6.663-26.95-7.95-39.796-5.665-2.29.406-4.615.561-6.785 1.091-11.376 2.778-29.452 7.07-40.106 5.927-.34-.035-.512-.225-.512-.575v-84.41c0-.15.075-.23.225-.239 18.766-1.006 30.772-3.768 48.411-9.534 6.047-1.976 14.177-2.82 20.292-1.798 9.578 1.6 9.389 1.862 18.152 5.321.812.32 8.638-3.611 14.016-4.526 9.81-1.668 11.046-1.707 20.446-.128 4.758.8 15.443 4.857 23.116 6.59a172.796 172.796 0 0 0 29.777 4.075c.22.009.331.124.331.345 0 27.47 0 54.904-.005 82.302 0 2.62.713 2.866-3.513 2.772-20.819-.462-32.474-6.458-49.958-8.005-7.53-.666-12.797.05-19.995 1.202-4.933.792-9.56 2.83-13.716 5.256a.348.348 0 0 1-.38 0" fill="#133654"/><path d="M312.404 605.525c-2.06 2.28-6.303 1.905-8.23-.543-2.119-2.69-.028-2.975-2.86-3.086-.623-.024-.327 3.475-.327 4.84.001 1.501 15.218 5.342 15.098-5.723-.07-6.53-8.11-5.824-10.625-8.76-3.44-4.018 5.409-8.562 7.642-.646.138.487 1.519.724 1.543.102.034-.9.225-4.794-.72-5.145-9.148-3.391-14.777 2.612-12.12 8.473 1.127 2.48 5.843 3.956 8.398 4.941 2.413.928 4.345 3.178 2.201 5.547zM309.2 33.252l.327 20.212c.023 2.343-3.777 1.327-3.695 2.674.142 2.357.942-.398 11.902.845 1.123.128 1.11-1.707.058-1.852-1.21-.166-2.974-.167-2.984-.773l-.22-20.734c-.018-1.099 4.124-.575 3.725-2.325-.057-.252-.216-.371-.477-.354-4.093.28-8 .305-11.717.071-.712-.044-.644 1.468-.018 1.551 1.005.135 3.02.205 3.099.685zm23.831 4.018a.112.112 0 0 1 .204.023c2.498 7.21 5.105 13.376 6.956 20.693l1.694.235c.914-1.42 1.078-3.023 1.825-4.434l8.654-14.965c.146-.049.212 0 .208.15-.23 4.897-.615 10.427-1.15 16.588-.218 2.502-3.865 1.068-3.964 2.02-.318 3.037.01-.3 12.186 2.59 1.16.275 1.08-1.107.402-1.397-1.529-.653-3.003-.996-2.957-2.188l.844-19.385c.046-1.89 3.97-1.028 4.053-1.848.194-1.912 1.276-1.314-8.45-1.812a.715.715 0 0 0-.66.358 393.434 393.434 0 0 0-5.202 9.445c-1.135 2.126-2.674 4.009-3.814 6.201-.713 1.38-.63-.854-1.334-2.767a284.316 284.316 0 0 1-4.655-13.551c-.234-.747-.566-1.445-1.445-1.56-1.079-.141-7.691-.986-8.164-.513-1.425 1.428 3.067 1.459 3.094 3.006l-2.762 19.663c-.693 2.357-3.38.061-3.678 2.335-.035.278.089.42.372.424 9.24.141 9.458 2.462 9.511-.084.023-1.097-4.093-.423-3.66-3.996zm-47.738 19.112c-.204.009-.319-.089-.341-.287-.8-6.75-1.375-13.658-1.728-20.73-.072-1.362 3.672-.928 3.527-2.333-.247-2.374-.732-.226-13.035.327-.99.044-.873 1.452.168 1.684 3.61.803 3.572.4 3.868 3.213.627 5.949 1.22 11.89 1.777 17.825.16 1.738-4.213.887-4.2 2.334.005.403-.113 1.28.562 1.158 6.926-1.224 14.254-1.993 21.993-2.307.913-.036 1.824-.063 1.835-.906.094-7.755.082-7.023-1.353-6.904-1.232.102.518 5.472-8.026 6.48a82.315 82.315 0 0 1-5.047.446zm-26.785-16.897c5.587 12.573 5.068 9.3 5.613-.977.343-6.472-8.09-4.559-5.613.977zM406.892 51.22a88.935 88.935 0 0 1-3.474 12.423c-.805 2.242-2.192 3.7-4.53 3.943-3.417.354-7.97-.897-8.947-4.596-.69-2.611 3.558-15.823 4.58-18.325.678-1.662 4.01.817 4.282-.204.765-2.867-.021-.186-11.955-5.087-.652-.268-1.198 1.44-.39 1.658.951.26 2.741 1.03 2.445 2.338-.95 4.137-2.188 8.65-3.717 13.534-1.445 4.629-.21 8.099 3.885 10.479 4.41 2.562 13.216 3.932 15.682-1.812 2.41-5.617 3.402-10.796 4.968-16.632.372-1.388 3.55.734 3.8-.575.392-2.043-.105-.614-8.622-3.341-.682-.219-1.014 1.18-.412 1.273 3.77.605 2.975 2.112 2.405 4.924zM235.9 66.194c-.356-1.115-.097-6.522.557-6.714 9.697-2.84 5.156-3.018 10.811 2.67 1.63 1.64-3.138 2.188-2.789 3.465.103.376.16.852.712.65a79.853 79.853 0 0 1 11.438-3.236c.972-.195.697-1.523-.159-1.578-1.467-.093-2.558.553-4.035-1.418a584.176 584.176 0 0 0-8.933-11.594c-1.759-2.223-3.761-4-5.18-6.639-.517-.96-2.716-.28-2.767.24l-2.528 25.011c-.817 2.041-3.503.99-2.957 3.108.208.805 1.83-.093 3.196-.672 5.003-2.12 6.756-.327 6.152-2.71-.245-.968-3.147.59-3.518-.583zm.517-9.34c.104-1.362.237-8.786 1.048-7.62l4.283 6.171c.4.585-3.63 1.344-4.999 1.72a.262.262 0 0 1-.332-.27zm-29.94-1.233a603.279 603.279 0 0 0 2.351 5.592c.398.937.57 1.94.964 2.89a188.325 188.325 0 0 1 3.554 9.287c.938 1.964-4.065 2.115-3.435 4.349.38 1.346 2.214-.986 7.09-2.272.776-.205 7.03-1.828 6.895-2.635-.422-2.526-4.09.707-4.853-1.14l-7.532-18.218c-.404-.977 2.697-1.687 4.96-2.564 1.73-.67 3.264 3.335 4.565 2.86 1.469-.536.752-1.432.433-2.254l-2.236-5.335c-.41-.569-1.528-.118-1.512.424.049 1.388-.782 1.635-1.878 2.078a1771.01 1771.01 0 0 0-16.305 6.682c-1.644.686-1.963-1.587-3.403-.477l.521 7.067c2.441 1.217 1.365-3.373 3.978-4.61.55-.26 5.43-2.739 5.843-1.724zm219.973 3.846c3.348 7.122 6.982 17.994 9.772 25.825.53 1.487 2.433 1.997 2.621 1.583 2.808-6.177 7.837-17.363 8.8-20.96.578-2.157 3.864.66 4.836-1.348.388-.8-2.378-1.26-5.578-2.926-.604-.314-2.897-1.298-3.443-.64-.923 1.11 3.248 1.776 2.484 3.867a211.723 211.723 0 0 1-5.729 14.02.23.23 0 0 1-.424-.009l-7.606-20.473-1.826-4.252-7.77-3.483c-.51-.229-.935 1.184-.477 1.46 4.441 2.67 3.1 4.66 1.29 8.454l-5.989 13.056c-.584 2.442-3.9-1.572-4.53-.008-.883 2.19 1.907 1.262 4.217 2.625 5.582 3.293 5.038 3.133 5.666 1.547.462-1.17-3.878-1.488-3.222-3.182.54-1.399 6.387-16.235 6.908-15.156zM181.89 87.812c.3 3.18-4.592 8.564-10.975 3.367-.486-.395-2.188.487-1.83 1.057.408.648 2.71 4.78 3.28 4.703 6.576-.896 13.065-5.584 12.079-11.046-.73-4.04-3.65-7.562-8.146-7.155-3.89.354-10.425 2.833-11.549-.96-1.193-4.027 4.316-7.713 9.052-3.067.46.451 2.274-.404 1.98-.92-.366-.641-2.936-4.84-3.726-4.697-6.643 1.205-12.511 6.32-9.454 12.401 4.2 8.356 13.531 1.6 17.246 3.426 1.238.61 1.919 1.573 2.042 2.89zm274.218 5.86c1.816-3.138 3.977-5.967 5.612-9.145l4.721-8.353c.84-1.468 3.252 1.49 4.544-.168.225-.287.168-.508-.164-.659-11.177-5.08-9.392-8.07-10.979-5.073-.484.913 3.234 1.792 2.294 3.266-3.178 4.95-6.568 10.448-10.179 16.495-1.133 1.893-4.974-.803-4.725.985a.737.737 0 0 0 .425.57c10.793 4.971 9.386 7.757 10.979 4.977.417-.729-3.008-2.057-2.529-2.895zm23.672 10.096 3.859-15.873c.727-2.33 3.887 1.493 4.662.288 1.52-2.364-1.307-.587-10.174-8.96-.577-.544-1.559 1.083-.884 1.68 2.087 1.849 1.68 2.704.606 7.072-1.78 7.234-2.134 11.632-4.65 19.89l1.777 1.431a24.319 24.319 0 0 0 2.493-1.896c1.383-1.193 3.328-1.856 4.892-2.828a695.323 695.323 0 0 0 7.709-4.867c6.045-3.874 4.53-4.11 9.308-2.992.55.129 1.319-.965.84-1.224-3.49-1.891-7.751-5.954-8.213-5.344-1.216 1.611 3.023 3.08 1.353 4.486-4.355 3.672-8.322 6.004-13.326 9.216a.173.173 0 0 1-.252-.08zM157.96 99.36c-1.072.223-25.628-4.002-26.573-3.262l-6.567 5.114c-.557.436.453 1.488 1.008 1.153 4.795-2.893 5.567.027 8.746 3.483l8.063 11.266c.821 1.53-3.07 2.554-2.405 3.333.543.635.638 1.259 3.164-.853 4.685-3.917 6.935-3.862 5.963-5.37-1.056-1.64-3.469 2.427-4.725 1.03-1.077-1.2-9.46-11.02-10.47-12.982-.085-.163-.036-.234.145-.22 9.03.741 17.225 2.112 26.232 3.235 1.667.208 2.674.45 3.89-.96.686-.79-12.294-15.117-14.378-18.015-1.564-2.174 2.509-3.287.892-4.999-.6-.637-.863.482-1.931 1.34-1.764 1.4-3.527 2.802-5.3 4.203-.728.577.196 1.561.85 1.277 3.145-1.37 2.936-2.13 5.382 1.436.46.668 1.123 1.075 1.6 1.645 2.162 2.564 4.341 5.153 6.542 7.775.164.194.12.318-.128.37zm345.745 18.214c.217-.234.442-.243.677-.031 5.353 4.858 6.372 4.662 3.623 8.487-.468.652.596 1.787 1.19 1.091a117.02 117.02 0 0 1 6.329-6.838c.405-.405-.586-1.32-1.052-.945-3.52 2.837-5.826.684-8.999-3.227-.454-.559 6.164-7.613 6.36-7.452a70.404 70.404 0 0 1 7.341 7.05c1.523 1.685-1.056 5.241-.437 5.75 1.261 1.039.385 1.35 4.504-3.2.748-.827-2.072-3.558-2.564-4.013l-9.847-8.583c-5.46-3.836-3.812-6.43-5.786-4.35-.816.86 3.223 2.536 1.67 4.456l-12.565 13.856c-2.569 2.8-4.276-2.02-5.374-.853-1.109 1.177-.716.241 3.38 4.013 4.346 4 8.262 7.81 11.753 11.43 0 0 2.412 2.485 3.015 1.984 1.09-.905 6.244-3.632 5.555-4.265l-1.321-.804c-1.9.985-4.477 1.742-6.409.508-1.004-.64-8.484-5.943-7.151-7.708zm-385.688 13.75c.62-.67 4.674-5.495 5.243-5.25 7.77 3.342 7.349 2.14 4.755 6.13-.265.408.658 1.373.999.99a131.14 131.14 0 0 1 8.588-8.84c.608-.567-.632-1.528-1.224-1.092-1.638 1.208-1.616 1.697-3.647.805-2.917-1.287-5.922-2.758-8.98-3.695l-13.309-5.534c-.559-.235-1.966 1.21-1.755 1.75.862 2.228 2.064 4.327 3.032 6.564 2.516 5.808 4.791 10.85 6.838 15.133 1.492 3.115-2.698 4.278-.588 5.477.82.466 1.953-2.536 3.377-3.722 3.365-2.8 3.892-2.887 3.102-3.854-.952-1.168-3.203 2.705-4.061.875-.36-.767-2.83-5.246-2.37-5.737zm-1.26-2.21c-4.253-9.45-5.247-8.454 4.01-4.287.707.319-2.493 3.27-3.518 4.367a.299.299 0 0 1-.491-.08zm416.822 18.639c.193-.627 1.965 1.442 4.69 1.22 6-.489 7.301-8.043 2.939-12.716-1.61-1.724-3.377-3.222-4.836-5.193a59.369 59.369 0 0 0-3.93-4.765c-.51-.565-1.712.392-1.285.994.867 1.224 1.938 2.265 1.269 2.856-2.383 2.099-4.66 4.128-7.4 5.953-3.339 2.223-8.185 8.329-9.502 7.257-1.92-1.561-2.109-2.128-3.024-1.418-1.066.827 2.517 2.936 5.424 6.85 1.549 2.088 2.63 3.904 3.509 2.967 1.204-1.285-1.979-3.525-1.083-4.328l6.652-5.896c.75-.662 2.737 2.287 2.338 3.315a79.983 79.983 0 0 1-3.341 7.465c-.306.6-2.056 4.175-1.605 4.597 4.22 3.948 5.13 7.45 5.936 6.206.797-1.228-1.012-2.574-.305-4.641 1.216-3.527 2.4-7.103 3.554-10.723zm2.638-13.68c.667-.54 5.578 5.257 1.481 8.562-2.423 1.954-5.217 1.889-7.107-.451-.765-.947-1.932-2.016-1.445-2.405zm-442-.534c-1.05-.607-12.088 7.633-5 15.032 2.077 2.166 5.87 1.972 7.855 1.392 4.275-1.248 9.849-7.377 12.389-2.436 1.573 3.068-1.318 6.776-4.266 7.647-2.576.762-4.897-1.023-5.405-.411-1.354 1.63-1.746.688 3.407 4.65a.783.783 0 0 0 .955 0c4-3.072 8.005-6.109 7.863-11.77-.07-2.79-2.497-5.358-4.79-6.595-3.395-1.83-7.413.464-10.471 2.56-10.082 6.906-9.845-10.25.401-5.826.808.349 2.398-1.127 1.34-1.746zm-18.6 32.282c-2.682-1.361-2.006-4.03-.6-6.077 2.242-3.267 6.453-.51 7.067-1.282 1.076-1.354 2.306-1.273-4.208-4.265-.646-.296-10.303 7.976-4.415 14.665 5.065 5.755 10.975.32 15.465-2.731 3.713-2.524 6.578.532 6.055 3.748-.477 2.935-3.156 5.91-6.369 5.578-3.596-.37-2.569-1.19-3.907.862-.345.529 4.049 2.931 4.619 3.297.909.583 5.682-4.575 7.023-7.642 3.037-6.946-3.328-11.71-7.17-11.523-5.087.248-9.853 7.251-13.56 5.37zm476.941-6.992c3.779-1.547 7.23 3.545 5.145 6.785-1.17 1.812-2.091 1.996-.699 3.708.456.56 5.08-3.378 4.91-3.92-4.907-15.807-19.058-9.95-16.472.729.892 3.684 3.148 9.915-1.808 10.554-2.96.382-9.204-3.9-4.15-11.16.287-.413-.787-1.667-1.185-1.392-1.412.98-4.393 2.654-4.212 3.403a27.109 27.109 0 0 0 2.922 7.293c4.32 7.493 17.113 4.988 15.019-5.64-.538-2.728-2.45-9.137.53-10.36zm-.292 35.629a2962.46 2962.46 0 0 1 11.938-6.643c6.411-3.552 5.732-4.963 8.482-1.468.53.675 2.208.057 1.617-.813-7.077-10.416-4.867-11.204-7.16-9.754-.942.595 1.627 3.177.526 3.796a1174.268 1174.268 0 0 1-15.032 8.234c-2.72 1.462-2.392 2.876-5.387-.557-.365-.417-1.73.253-1.375.752 7.12 10.01 4.744 11.627 6.984 9.944.848-.637-1.5-2.974-.593-3.491zm-497.187.69 17.02 8.923c2.464 1.307 2.003 1.22.575 5.136-.207.567 1.243.922 1.52.287 1.948-4.448 2.503-6.2 5.495-11.385.838-1.455 6.474-9.955 5.79-10.51l-5.38-4.341c-.761-.614-1.471 1.02-.883 1.702 4.189 4.852 1.115 8.99-2.303 14.232-.31.473-.938.618-1.424.33a94.672 94.672 0 0 0-7.597-4.065c-.243-.12-.305-.296-.177-.535 4.202-7.849 2.752-7.097 7.42-5.967.687.166 1.156-1.091.61-1.384l-8.211-4.384c-.61-.33-1.292 1.031-.699 1.477 1.04.773 2.9 1.997 2.281 3.518-.268.656-2.746 6.808-3.536 6.355-.85-.488-8.394-4.296-8.11-4.87l4.95-9.136c1.175-1.4 5.76.615 6.028-1.273l-5.065-2.9c-1.212-.63-2.97 3.803-3.73 5.233l-6.837 13.106c-2.633 3.434-2.315 2.813-.96 3.69.745.482 2.138-3.666 3.222-3.24zm508.984 24.057c-.137-.535.04-.924.54-1.158l17.528-8.102c1.071-.6 1.693 2.096 2.895 4.893.683 1.59-3.573 3.385-2.66 4.795.304.473.685.8 1.272.54l6.657-3.205c-.176-2.183-1.818-.13-2.838-2.347a1596.476 1596.476 0 0 1-5.361-11.814c-.76-1.693-1.171-3.412-1.963-5.087-.38-.805 1.665-3.125.235-2.988-5.413.518-7.797-.418-7.32 1.662.227.987 4.202.39 5.499 3.235.654 1.435 2.503 4.887 1.715 5.26a932.6 932.6 0 0 1-8.11 3.717c-2.03.915-4.169 1.392-6.189 2.484-4.62 2.49-4.218 1.489-6.351-1.127-.551-.677-2.605-.986-1.931.208 2.311 4.101 3.743 8.163 5.423 12.446.299.769 1.72.233 1.485-1.017a40.791 40.791 0 0 0-.526-2.395zM62.65 217.575c.075.106.057.19-.062.247a434.2 434.2 0 0 1-12.946 6.007c-1.034.46-2.37.725-3.182 1.123-1.687.83-7.718 3.42-8.022 4.251l-2.873 7.828c-.174.482 1.196.9 1.467.407 2.043-3.724 3.366-3.874 7.094-2.409l15.182 5.702c1.556.799-1.722 3.964-.075 4.367 2.347.573.351-1.212 2.661-5.375 2.486-4.482 2.158-4.447.902-4.752-1.553-.377-1.45 3.91-2.98 3.435a239.757 239.757 0 0 1-15.703-5.454c-1.593-.625 20.574-10.083 25.197-12.102 1.384-.604 1.555-2.494 1.101-2.665a697.125 697.125 0 0 0-21.4-7.523c-2.07-.688-.136-3.84-1.168-4.194-.567-.195-.964-.45-1.11.022l-2.59 8.37c-.2.648 1.073.95 1.296.434.608-1.407 1.113-2.979 2.51-2.585.78.219 14.233 4.224 14.7 4.866zm531.066 18.705c.518 1.362 3.314 9.355 2.448 10.585-2.841 4.039-3.52 2.13-2.957 4.451.18.74 3.923-.898 5.45-1.423 1.008-.347-.042-3.46-.274-4.164l-5.15-16.893c-.785-3.703-.293-3.47-1.847-3.049-1.11.3 1.005 4.106-.075 4.588l-19.067 6.258c-2.9.902-2.512-4.186-3.779-3.827-.409.116-1.046.19-.897.68.972 3.245 2.307 6.299 3.23 9.455l4.085 14.094c.075.204.225.292.441.27 8.224-.894 7.273-.35 6.706-2.197-.398-1.292-4.73 1.05-6.895-4.366-1.123-2.802-1.857-5.344-2.201-7.63-.102-.693.19-1.14.883-1.343a366.51 366.51 0 0 0 7.762-2.395c.464-.15.782.004.945.468 2.725 7.694 2.52 7.275-.87 9.171-.682.382-.55 1.826.292 1.57 1.084-.331 9.175-2.504 9.286-3.112.487-2.667-3.857.49-4.955-2.17-.199-.482-2.724-6.308-1.954-6.546l8.902-2.714a.4.4 0 0 1 .49.239zM40.515 264.443l-9.158-2.082c-.94-.214 1.782-8.635 2.254-9.931.669-1.839 5.187-1.632 5.375-2.475.351-1.575.944-.995-5.397-2.418-2.532-.568-3.153 15.881-6.355 23.36-.359.835 1.41 1.388 1.634.463.151-.62.935-3.35 1.954-3.125l9.75 1.742c3.311.747 6.643 1.538 9.993 2.373 1.47.368-.21 4.761.576 4.941 2.018.465.75.71 2.651-7.327a431.29 431.29 0 0 1 4.305-16.681.412.412 0 0 0-.234-.49c-6.274-2.745-7.324-3.915-7.178-1.503.043.704 4.012 2.53 3.92 5.525-.092 3.063-.738 6.196-1.935 9.41-.244.658-.712.905-1.401.742-.776-.184-8.718-1.68-8.61-2.294.42-2.427.901-4.659 1.45-6.692.712-2.65 4.382-.392 4.654-1.97.074-.434.21-.93-.482-1.022l-9.18-1.57-.186 1.097c3.297 1.702 4.4.67 2.007 9.68-.058.216-.195.296-.407.247zm561.921 12.654c.261 1.375.53 2.948.818 4.72.34 2.103-4.194 2.343-3.713 3.7.149.42.274 1.133.964 1.013l6.939-1.234c.747-.13.463-1.5-.252-1.45-.862.058-1.379-.45-1.556-1.524a751.3 751.3 0 0 0-1.808-10.414c-.473-2.594-1.096-5.149-1.498-7.752-.23-1.476 1.795-1.198 1.224-2.904-.176-.539-6.066-1.014-6.93-1.123-.583-.072-.737 1.434-.141 1.764 4.067 2.253 3.71 2.333 4.676 8.344a.474.474 0 0 1-.367.54 263.455 263.455 0 0 1-18.93 3.51c-1.293.19-1.88-5.007-3.66-4.305-.35.14-.473.393-.371.76 1.737 6.182 1.825 11.367 2.43 13.374.121.4 1.204.417 1.252-.566.084-1.75-.27-3.186.817-3.39l19.31-3.606a.676.676 0 0 1 .796.543zM37.527 289.164c-.659-2.436-1.715-4.858-4.535-5.335-6.363-1.075-8.745 4.362-8.866 9.534l-.826 11.823c.042.554 1.424.588 1.546-.032.634-3.204.068-3.06 2.75-2.761 6.267.72 12.433 1.422 18.492 2.112 2.228.252-.224 3.588 2.122 3.938.314.049.593-.2.588-.517-.17-10.206 2.964-13.062-.084-12.623-.894.128-.834 3.863-2.272 3.748l-8.438-.667c-1.015-.08-.806-3.496 1.459-4.341 1.12-.417 11.19-4.025 11.19-4.552.006-4.965 2.032-9.513-.043-8.252-.937.566-.84 2.086-1.98 2.647a652.291 652.291 0 0 0-10.785 5.42.228.228 0 0 1-.318-.142zm-11.35 7.818c-.868-.105-.146-7.786 4.963-7.204 5.417.618 4.814 4.449 4.438 7.894a.392.392 0 0 1-.433.349zm558.372 8.495a.257.257 0 0 1 .239-.238l20.6-1.618c1.358-.107 1.103 3.602 2.246 3.558 2.495-.095.197-.032.203-12.336 0-.544-1.862-.39-1.874.22-.068 3.364.926 3.54-5.34 3.731-5.794.173-10.845.425-15.155.748-2.356.176-1.704-3.3-2.855-3.143-2.53.346.46.39-.146 11.978-.058 1.104 1.815.903 1.888-.12zM59.9 394.617l-16.803 4.548c-2.37.672-1.394-2.917-3.555-2.325-.3.085-.393.266-.273.549 3.508 8.404 1.47 10.38 3.677 9.675 1.28-.41-.465-3.145.54-3.412 1.272-.332 2.7-.49 3.858-.787 4.176-1.056 8.61-2.21 13.304-3.46.902-.244 1.295 2.857 2.44 2.54 1.91-.527-.059-.538-1.888-10.439-.115-.625-1.316-.37-1.211.508.14 1.165.508 2.358-.088 2.603zm530.266 15.028a.363.363 0 0 1-.388.12l-17-5.234c-1.412-.425.92-4.324-1.515-3.713a.386.386 0 0 0-.297.292 119.47 119.47 0 0 1-3.314 10.334c-.207.546 1.01.856 1.361.389 2.094-2.787 1.38-2.944 4.579-1.994a712.748 712.748 0 0 1 14.52 4.513c1.096.356-.843 3.46.278 3.735.441.109 1.059.315 1.18-.172a135.29 135.29 0 0 1 3.523-11.868c.756-2.176 3.36-7.374 2.36-7.761-3.671-1.42-6.123-2.997-6.206-1.056-.057 1.344 4.05 1.774 2.688 7.076zm-527.914 6.046a12.983 12.983 0 0 1-.968 2.28c-.605 1.12-.659 2.38-1.18 3.497-1.927 4.097-3.761 8.265-5.825 12.296-2.419 4.724-2.183 3.828-1.38 5.795.401.98 13.407-5.859 18.78-7.072 2.3-.52 2.496 2.346 3.54 1.798.866-.453-1.916-6.123-2.448-7.336-.266-.608-1.366-.265-1.228.61.397 2.532 1.386 2.858-5.335 5.123-7.347 2.475-8.997 5.122-6.09.013.415-.725.46-1.538.782-2.246a605.626 605.626 0 0 1 6.983-14.868c.475-.971-1.72-5.506-2.47-7.382-.222-.552-1.468-.213-1.265.513.478 1.72.561 3.718-1.34 4.606-2.912 1.361-6.196 2.674-9.86 3.942-1.75.606-3.452.84-5.175 1.472-1.84.672-1.248-2.822-2.745-2.342-.856.274-.078.852.424 2.365 2.288 6.901 1.524 6.718 3.09 6.055 1.14-.484-1.275-3.181.048-3.894 5.768-3.109 7.518-2.578 13.388-5.454a.195.195 0 0 1 .274.23zm504.1 30.374c5.068 2.047 10.97.194 14.091-4.871.835-1.352 1.132-2.944 1.613-4.45 1.129-3.542.114-8.746-2.674-11.227-7.213-6.421-16.061-3.192-19.611 5.052-2.798 6.51-.053 12.817 6.582 15.496zm5.86-18.175c2.86 1.04 8.235 3.426 8.447 7.036.842 14.296-27.27 3.907-17.64-5.984 2.467-2.533 6.065-2.188 9.194-1.052zm-497.16 39.598c.38-3.396 4.57-15.504 5.9-19.775.363-1.157.632-1.538.107-2.47a1123.947 1123.947 0 0 0-3.16-5.574c-.367-.646-1.408.058-1.159.663.597 1.463 1.048 3.236-.344 4.398-1.357 1.136-2.758 1.998-4.212 2.59-11.801 4.808-10.315 7.237-12.27 2.869-.36-.804-1.766.015-1.362.672 4.08 6.626 2.868 8.51 4.796 7.43 1.161-.652-1.76-3.17-.42-4.01 1.1-.687 13.244-8.055 12.8-6.757-.468 1.374-.398 2.864-.787 4.225l-5.922 19.275 1.127 1.375 15.934-9.119c3.99-2.24 3.455 1.855 5.038.805.695-.461-.213-.793-.676-1.826-.202-.452-2.763-6.817-3.792-4.83-.388.747 1.275 2.778.212 3.504-2.038 1.388-4.239 2.263-6.356 3.518zm482.222-10.396c.141-2.71-.128-4.645-2.908-5.657-4.85-1.77-8.283 5.291-10.228 9.03-2.031 3.904-4.549 5.955-2.427 6.108.84.06 1.28-2.629 2.692-1.94l15.227 8.592c1.354.871-1.1 3.172-.08 3.69 1.43.727.916.137 3.752-4.892 1.475-2.615 3.336-5.171 4.443-9.19 1.603-5.822-5.208-10.453-10.003-5.538-.336.345-.49.28-.468-.203zm5.238 3.192c4.047 2.055 3.58 5.418.959 8.384-.38.429-.832.508-1.353.234a219.692 219.692 0 0 1-7.248-3.956c-.438-.252-.522-.587-.257-1.016 1.786-2.846 4.185-5.53 7.899-3.647zm-15.881.287c-1.206-.611 2.25-6.56 5.794-4.716 3.795 1.974 2.627 4.53 1.04 7.558a.637.637 0 0 1-.859.27zM82.84 491.55c8.68 12.772 21.421 5.107 22.484-1.613 1.954-12.353-9.805-17.872-16.765-14.586-1.622.765-2.988 1.64-4.102 2.625-3.819 3.373-4.446 9.406-1.617 13.574zm10.722 2.413c-5.5 2.405-10.621-1.89-9.3-6.581 1.845-6.547 15.525-14.971 18.335-4.734 1.51 5.5-4.653 9.402-9.034 11.315zm456.49-2.073c-.894.251 2.148-4.36-1.596-9.878-2.978-4.391-6.695-5.254-11.903-4.81-7.538.645-13.443 10.625-9.533 17.486 3.443 6.037 10.024 7.978 16.327 4.707 5.34-2.769 12.54-4.47 16.243-9.856.305-.444-1.212-1.507-1.595-1.136-1.836 1.773-5.294 2.707-7.943 3.487zm-9.105 5.44c-3.408-.149-7.5-3.35-10.02-5.55-5.667-4.956-.271-13.995 7.837-10.308 13.335 6.066 9.01 16.167 2.183 15.859zM110.75 514.225c1.963-4.363 4-8.509 6.108-12.442.933-1.731 3.082 1.486 3.599 1.012.844-.776 1.299-.375-2.149-3.775-5.207-5.134-4.212-6.396-5.653-4.994-.814.792 1.432 1.763.844 3.204-2.519 6.176-6.284 12.857-9.038 19.514-.358.87.5 1.746 1.374 1.397l19.39-7.373c1.945-.605 3.65 1.934 4.473.504a.353.353 0 0 0-.08-.45c-5.837-4.866-5.243-6.607-6.51-5.384-.9.869 2.642 2.71.805 3.598-.961.464-13.66 6.327-13.163 5.189zm418.55-.336a.502.502 0 0 1-.65-.013l-12.96-11.59c-1.006-.904 1.942-2.824.57-3.902-.251-.199-.476-.177-.68.07-6.518 7.903-8.393 7.13-6.67 8.465.93.72 2.313-2.163 3.156-1.401 1.203 1.078 2.612 1.86 3.793 2.939 1.312 1.201 9.085 8.194 9.347 9.202.25.958-1.86 2.417-.843 3.244 1.06.862 2.001-2.484 7.707-7.204.839-.693-.384-1.77-1.038-1.23zm-23.041 21.626c-.538 1.456-2.368 2.491-1.72 3.505.712 1.113 1.484-.856 3.214-2.307 1.345-1.128 6.752-4.984 6.4-5.631-.955-1.754-3.132 1.647-4.164.707-2.379-2.166-5.64-6.769-9.211-9.878-.444-.386-3.025-2.61-2.4-3.156 4.529-3.964 3.057-3.67 7.35-1.79.521.228 1.518-.717.65-1.635-2.835-2.997-4.292-5.53-4.981-3.585-.199.56.834 1.13-.367 2.166a713.592 713.592 0 0 0-11.995 10.586c-.56.502-3.522-.661-2.701 1.06 1.41 2.955 2.278 6.214 3.571 4.827.457-.49-.673-3.204.791-4.844 1.385-1.551 3.185-3.883 4.133-2.913a340.18 340.18 0 0 1 11.284 12.115.772.772 0 0 1 .146.773zm-373.997-2.417c-1.956 6.156-2.13 5.783-4.69 4.327-.875-.498-1.69.293-1.14.711a64.942 64.942 0 0 1 7.97 7.036c.653.687 1.18-.865.198-2.094-.407-.508-.49-1.11-.256-1.795.508-1.485.76-2.926 1.365-4.406 1.75-4.275 3.417-8.77 4.995-13.494.783-2.347 1.51-1.45-.358-3.165a.368.368 0 0 0-.425-.048c-2.064 1.17-4.243 1.984-6.284 3.023-4.407 2.25-8.783 4.446-13.128 6.598-1.413.704-3.05-2.115-3.915-.574-.4.71 2.456 1.776 3.664 3.439 2.974 4.096 3.378 1.58 3.032 1.242-2.853-2.789-1.094-2.795 3.725-5.304.51-.266 5.324 4.256 5.247 4.504zm-2.719-5.729c7.323-3.73 6.657-4.427 3.797 3.36-.321.875-2.573-1.599-3.871-2.763a.364.364 0 0 1 .074-.597zm20.08 25.42c-.596.808-3.377-1.581-4.618-.602-1.052.83 2.101 1.498 4.918 3.956a60.81 60.81 0 0 0 4.566 3.61c.71.51 1.369-.572.739-1.268-1-1.103-2.136-1.924-1.65-2.572l10.418-13.86 3.633 2.412c1.625 1.196-1.244 4.31.513 4.88.43.137.77.035 1.022-.305 2.735-3.72 4.712-5.38 2.757-5.675-1.451-.22.344 2.741-8.336-4.322-1.962-1.598-7.61-4.158-7.575-5.296.102-3.3-1.066-1.63-5.587 1.662-.523.38-.13 1.394.641 1.22 1.202-.274 3.187-1.03 4.274-.486.62.308 5.027 2.27 4.38 3.2a423.914 423.914 0 0 1-8.199 11.32c-.534.71-1.321 1.347-1.896 2.125zm323.796-11.66c-2.645-2.635 1.809-6.725 5.295-4.92 1.074.557 1.989 1.415 3.196.473.676-.525-3.151-4.224-3.523-4.088-14.131 5.153-7.304 16.275.72 14.081 2.723-.744 10.117-3.66 9.812 1.75-.159 2.847-2.9 4.244-5.427 4.425-2.649.192-3.77-2.08-5.657-.813-.435.291 2.105 3.033 2.793 3.89.788.98 12.606-3.711 10.196-10.573-2.85-8.117-10.06-4.167-14.152-3.31-1.282.27-2.365-.036-3.253-.916zm-14.104 6.678c1.822-1.939 2.156-1.878 1.702-2.847-.168-.349-.411-.41-.725-.18-8.177 5.97-10.172 4.557-8.641 6.466.648.808 2.583-1.523 3.337-.553 4.13 5.31 5.842 9.34 9.012 14.687.752 1.268-2.427 1.774-1.56 3.218.469.779 1.359-.652 3.377-1.67 6.456-3.26 6.923-2.889 6.108-4.266-.6-1.014-2.965 1.485-3.54.535l-9.119-14.904c-.106-.172-.088-.336.049-.486zm-275.177 5.304c4.003 2.026 1.574 5.941 2.342 6.577.291.24 1.093.827 1.37.375.338-.55 2.371-4.136 1.901-4.68-2.882-3.336-6.932-5.276-11.209-3.673-3.411 1.278-5.072 6.331-1.569 10.356 2.586 2.97 5.47 6.031 2.807 8.592-1.872 1.8-8.808.434-7.518-6.427.117-.626-1.304-1.341-1.556-.902l-2.18 4.182c5.19 6.285 13.035 8.096 16.186.928 1.556-3.536-1.321-6.811-3.796-9.286-3.173-3.167-1.147-8.25 3.222-6.042zm22.258 11.836c2.358.39 2.785.74 3.015-.313.084-.394-.062-.655-.442-.783-8.576-2.91-8.811-5.493-9.777-3.394-.536 1.166 2.676 1.29 2.219 2.594-1.478 4.205-5.248 9.066-7.187 15.191-.539 1.704-3.649-.003-3.885.513-.654 1.43-1.167.707 4.601 2.904 4.753 1.81 4.389 3.493 5.344 1.467.517-1.097-2.788-1.233-2.338-2.143l7.92-15.802a.49.49 0 0 1 .53-.234zm198.073 8.663c.446-.154.751-.013.915.433 1.822 4.952 4.198 10.285 5.613 15.143.433 1.483-3.404 2.006-3.187 3.73.144 1.136 2.612-.636 5.574-1.617 2.148-.712 4.194-1.38 6.143-2.002.715-.228.26-1.503-.773-1.327-1.48.252-2.413.666-2.74-.194l-6.003-15.624c-.337-.882 2.622-1.468 4.584-2.13 1.42-.481 3.27 4.299 4.199 1.953l-1.618-5.578c-.174-.77-1.466-.398-1.627.583-.062.376-.318.69-.676.823l-15.668 5.706c-.683.245-2.813-1.876-2.754-.031l.411 5.856c1.953 1.033 1.161-3.146 3.664-4.207a60.62 60.62 0 0 1 3.943-1.516zm-182.258-1.962c.134-.699 2.825.778 3.036-.097.445-1.85.007-.25-7.903-3.952-3.416-1.598-2.707.402-2.245.588 1.003.402 1.658 1.321 1.954 2.754.8 3.85 1.72 7.593 2.767 11.222.292 1.027-1.435 5.082-2.002 6.691-.49 1.386-4.009-1.053-4.262.659-.052.354.098.57.447.654 9.608 2.275 10.166 4.778 10.873 2.966.44-1.13-2.804-1.378-2.356-2.52 4.575-11.655-1.58-3.547 11.81-13.701 2.57-1.95 3.145.778 4.053-1.512.066-.168.013-.274-.159-.318-6.494-1.644-6.608-3.465-6.86-1.4-.105.855 2.843 1.185 1.874 2.032-.89.779-8.836 7.5-9.065 5.861zm23.112 20.057c.806.195 6.236 1.218 6.328 1.782.956 5.827 1.63 6.142-2.02 5.719-.776-.09-1.347 1.11-.6 1.228a58.99 58.99 0 0 1 10.006 2.542c.97.34 1.108-1.128.385-1.432-1.03-.429-2.06-.76-2.233-2.068a557.279 557.279 0 0 0-3.076-20.491c-.085-.497-1.559-.904-1.816-.495-1.286 2.037-2.94 3.756-4.323 5.697-2.709 3.806-5.485 7.673-8.331 11.593-1.036 1.426-4.413.073-3.638 1.375l7.611 2.015c.663.252 1.21-.95.482-1.277-3.29-1.48-3.118-.462.698-5.989a.459.459 0 0 1 .526-.199zm1.1-2.046c4.874-6.893 3.895-7.272 4.968 1.228.102.813-3.293-.377-4.791-.75a.307.307 0 0 1-.177-.478zm131.314-10.776c-1.056 6.944-1.825 13.574-2.899 20.354-.358 2.248-3.317 1.917-2.634 3.487.261.6 2.101-.73 4.548-1.132 3.863-.635 4.025-.381 3.774-1.48-.277-1.22-3.805.844-3.535-1.525.695-6.119-.762-4.421 6.93-6.28.676-.164 3.174 3.777 3.673 4.441.831 1.109-3.202 1.22-2.608 2.696.11.257.402.38.668.283a46.473 46.473 0 0 1 10.024-2.413c.595-.074.65-1.005-.106-1.038-1.056-.045-2.334.203-3.072-.73l-8.34-11.73c-1.34-1.79-2.931-3.341-4.195-5.238-.362-.548-2.174-.019-2.228.305zm.2 12.624c1.086-8.535-.043-8.2 5.034-1.163.41.57-3.41 1.118-4.739 1.428a.24.24 0 0 1-.296-.265zm-28.212 12.918c-2.545.917-3.256.832-2.914 1.897a.559.559 0 0 0 .66.376 76.15 76.15 0 0 1 10.744-1.675c1-.083.81-1.49.097-1.508-4.176-.108-3.024 1.127-4.504-8.089-.158-.981 5.467-1.132 6.197-1.14 1.473-.015 1.335 2.427 2.488 2.378.544-.022.787-.212.725-.57-1.322-7.845-.07-7.42-2.055-7.142-1.14.159.62 2.66-1.565 3.288-.967.278-6.094 1.698-6.236.636l-.92-6.567c-.075-.53.15-.858.672-.977a63.415 63.415 0 0 1 6.436-1.127c2.508-.312 2.42 3.992 4.503 2.554.486-.335-.706-5-.967-4.954-6.259 1.176-12.15 2.2-18.737 2.674-.63.043-.667 1.218.022 1.29 1.128.119 2.963.097 3.055.654.479 2.89 2.801 15.809 2.625 17.583a.498.498 0 0 1-.327.42zm-21.49 1.848c-2.064.718-2.558.61-2.506 1.556.065 1.18 3.601-.398 7.743-.115 3.559.243 3.432.136 3.35-.955-.09-1.198-3.238.013-3.297-1.317l-.808-17.237c-.05-1.224 3.734-.601 3.187-2.484a.386.386 0 0 0-.416-.274c-10.411 1.272-10.871-.528-10.59 1.622.17 1.294 3.256-.636 3.337 1.931l.283 16.937a.431.431 0 0 1-.283.336" fill="#fff"/><path d="M41.302 340.314c5.68 0 10.286 4.605 10.286 10.286 0 5.68-4.605 10.285-10.286 10.285-5.68 0-10.286-4.605-10.286-10.285s4.605-10.286 10.286-10.286M593.854 340.314c5.68 0 10.286 4.605 10.286 10.286 0 5.68-4.605 10.285-10.286 10.285-5.68 0-10.286-4.605-10.286-10.285s4.605-10.286 10.286-10.286" fill="#fdc017" fill-rule="evenodd"/><path d="M364.258 222.397a324.405 324.405 0 0 0 6.515-6.14c2.038-1.975 3.677-4.296 5.79-6.139 10.732-9.349 3.633-22.945-9.525-19.81-2.276.544-4.31 1.822-6.09 3.833-2.091 2.364-2.197 4.22-2.082 7.107.02.52 2.25.499 2.302.026.703-6.473 5.453-8.588 10.727-6.284 2.153.94 2.814 6.143 2.087 9.038-1.328 5.284-3.028 6.838-6.865 11.315l-8.358 9.34c-1.368 1.394-1.162 3.526-.862 3.526l23.895.005 1.63-9.579c.12-.791-2.601-.732-2.793 0-.522 1.954-1.273 3.987-3.598 4.005-4.23.031-8.45.049-12.663.049-.287 0-.322-.098-.11-.292zm-97.352.282c-.367 0-.407-.114-.115-.344l13.494-13.406c3.482-3.19 4.057-7.323 3.354-12.079-.919-6.172-12.764-10.684-20.04-2.904-2.968 3.174-2.536 7.623-1.949 7.624l1.972-.264c.938-6.351 5.29-8.615 10.179-6.423 4.676 2.097 2.958 11.126.649 13.985a220.236 220.236 0 0 0-5.175 6.67l-8.752 9.948c-.802.792-.929 2.732-.358 2.732h23.73a.27.27 0 0 0 .266-.226l1.432-9.427c.093-.63-2.2-.588-2.37-.137-.724 1.998-1.153 4.22-3.8 4.23-4.23.013-8.403.021-12.517.021zm41.794-32.127c-6.425-2.628-11.913 2.571-13.914 8.358-2.447 7.077-2.96 18.245 1.52 24.861.951 1.404 2.7 3.91 4.451 4.58 18.883 7.213 21.952-32.071 7.943-37.8zm-5.94 2.873c2.36-2.025 5.4-.49 6.307 2.117 1.75 5.035 1.117 22.16.07 27.27-.904 4.415-8.516 6.988-8.707-3.982-.101-5.971-.393-12.053-.075-18.152.142-2.648.305-5.45 2.404-7.253zm28.888 29.264c-.363 0-.411-.124-.146-.368l11.62-11.447a16.051 16.051 0 0 1 1.666-1.772c8.44-7.794 3.435-21.126-9.374-19.028-9.759 1.599-9.79 11.51-8.716 11.505 3.673-.016.2-.15 3.24-5.016 2.028-3.249 8.258-2.958 10.214-.721 2.939 3.373 1.596 9.848-.836 13.158-2.9 3.938-5.949 7.576-9.144 10.909-1.547 1.613-2.396 3.522-4.106 4.976-1.417 1.209-1.536 3.329-.92 3.329l23.766-.005c.124 0 .23-.088.247-.212 1.66-11.29 2.467-9.844-.773-9.852-1.264-.003-.516 4.472-4.195 4.495-4.234.031-8.415.044-12.543.049" fill="#fff"/></g></svg>