<?xml version="1.0" standalone="no"?>
<!DOCTYPE svg PUBLIC "-//W3C//DTD SVG 20010904//EN"
 "http://www.w3.org/TR/2001/REC-SVG-20010904/DTD/svg10.dtd">
<svg version="1.0" xmlns="http://www.w3.org/2000/svg"
 width="500.000000pt" height="500.000000pt" viewBox="0 0 500.000000 500.000000"
 preserveAspectRatio="xMidYMid meet">

<g transform="translate(0.000000,500.000000) scale(0.100000,-0.100000)"
fill="#000000" stroke="none">
<path d="M0 2500 l0 -2500 2500 0 2500 0 0 2500 0 2500 -2500 0 -2500 0 0
-2500z m3102 1369 c62 -13 149 -55 163 -78 6 -9 10 -165 10 -388 0 -404 3
-386 -54 -314 l-29 37 29 119 c16 66 29 130 29 143 0 12 3 22 8 22 4 0 7 34 7
75 0 41 -3 75 -7 75 -4 0 -10 10 -13 21 -11 35 -84 107 -118 118 -134 41 -169
30 -643 -209 -219 -111 -392 -196 -383 -188 257 219 567 454 672 509 118 61
224 80 329 58z m-837 -30 c50 -11 115 -27 146 -35 l55 -16 -1 -50 c-1 -40 -7
-55 -25 -70 -13 -10 -29 -17 -35 -14 -63 24 -264 59 -341 60 -83 1 -94 -1
-132 -27 -87 -57 -120 -160 -93 -287 7 -33 87 -203 207 -442 107 -213 193
-388 190 -388 -2 0 -60 69 -128 153 -356 437 -434 563 -445 728 -15 215 120
382 332 412 50 8 175 -4 270 -24z m736 -615 c180 -223 313 -405 349 -479 61
-124 74 -237 40 -347 -37 -121 -106 -196 -220 -239 -73 -28 -168 -34 -192 -12
-10 9 -18 13 -18 8 0 -4 -7 -2 -15 5 -8 7 -15 9 -15 5 0 -4 -7 -2 -15 5 -8 7
-15 9 -15 4 0 -5 -4 -3 -9 4 -4 7 -14 15 -22 16 -8 2 -27 8 -44 15 -40 15 -54
20 -63 21 -4 1 -15 9 -24 17 -10 9 -18 13 -18 8 0 -4 -7 -2 -15 5 -8 7 -15 9
-15 5 0 -4 -7 -2 -15 5 -8 7 -15 9 -15 5 0 -5 -9 0 -20 10 -11 10 -20 15 -20
11 0 -4 -5 -4 -11 0 -7 4 -1 14 16 28 l27 22 91 -23 c156 -38 291 -55 340 -42
55 15 131 90 146 144 14 50 14 116 0 175 -5 25 -100 225 -210 445 -110 220
-190 388 -177 374 13 -15 84 -102 159 -195z m-412 -112 c24 -18 26 -25 26 -97
0 -74 -1 -79 -28 -99 -63 -47 -157 -17 -186 59 -13 32 -13 43 0 78 28 81 120
110 188 59z m-754 -187 l46 -53 -20 -73 c-69 -257 -66 -366 12 -447 42 -45 71
-58 137 -66 99 -11 166 14 550 209 195 99 368 186 385 193 35 16 31 11 -50
-55 -33 -27 -98 -80 -145 -118 -185 -152 -389 -298 -475 -341 -150 -74 -287
-79 -417 -13 -100 50 -152 118 -183 236 -28 105 -21 171 41 428 43 178 49 183
119 100z m-395 -1212 l95 -127 3 127 3 127 49 0 50 0 0 -210 0 -210 -48 0 -48
0 -94 127 -95 127 -3 -127 -3 -127 -49 0 -50 0 0 210 0 210 48 0 48 0 94 -127z
m610 87 l0 -40 -110 0 -110 0 0 -45 0 -45 100 0 100 0 0 -40 0 -40 -100 0
-100 0 0 -45 0 -45 115 0 115 0 0 -40 0 -40 -170 0 -170 0 0 210 0 210 165 0
165 0 0 -40z m180 -90 c0 -96 4 -139 15 -159 26 -51 104 -61 142 -19 15 17 18
42 21 164 l3 144 50 0 49 0 0 -145 c0 -167 -8 -197 -66 -241 -32 -25 -48 -29
-113 -32 -64 -2 -82 1 -115 20 -75 44 -81 59 -84 239 l-3 159 50 0 51 0 0
-130z m644 116 c40 -17 74 -58 82 -100 8 -47 -13 -115 -46 -144 l-28 -25 44
-68 44 -69 -59 0 -60 0 -33 60 c-32 59 -33 60 -75 60 l-43 0 0 -60 0 -60 -55
0 -55 0 0 210 0 210 125 0 c84 0 137 -5 159 -14z m466 -126 c32 -74 71 -168
88 -207 l31 -73 -58 0 -58 0 -13 40 -13 40 -94 0 -95 0 -15 -40 c-16 -40 -16
-40 -71 -40 -39 0 -53 3 -49 13 3 6 38 86 77 177 39 91 78 180 86 198 13 32
14 33 70 30 l58 -3 56 -135z m260 -25 l0 -165 90 0 90 0 0 -45 0 -45 -140 0
-140 0 0 210 0 210 50 0 50 0 0 -165z m-1749 -510 l26 -70 15 35 c8 19 20 52
27 73 7 20 19 37 27 37 19 0 19 -3 -18 -97 -38 -97 -57 -106 -83 -40 -58 144
-57 139 -38 135 11 -2 27 -29 44 -73z m269 -15 c0 -73 -3 -90 -15 -90 -12 0
-15 17 -15 90 0 73 3 90 15 90 12 0 15 -17 15 -90z m268 69 c3 -14 -4 -16 -42
-12 -37 5 -46 3 -46 -9 0 -9 15 -21 33 -28 68 -27 86 -65 45 -94 -40 -28 -118
-15 -118 20 0 12 5 14 18 9 9 -5 32 -10 50 -13 27 -3 32 -1 32 16 0 14 -13 24
-45 36 -38 15 -45 22 -45 45 0 39 18 52 70 49 32 -2 46 -8 48 -19z m182 -69
c0 -73 -3 -90 -15 -90 -12 0 -15 17 -15 90 0 73 3 90 15 90 12 0 15 -17 15
-90z m295 65 c17 -16 25 -35 25 -59 0 -48 -8 -65 -41 -81 -66 -34 -134 -3
-146 67 -5 32 -1 41 25 68 40 40 101 42 137 5z m245 -38 l45 -62 3 63 c2 46 7
62 17 62 12 0 15 -18 15 -90 0 -79 -2 -90 -17 -90 -10 0 -38 28 -63 63 l-45
62 -3 -63 c-2 -46 -7 -62 -17 -62 -12 0 -15 18 -15 90 0 79 2 90 18 90 9 0 37
-28 62 -63z"/>
<path d="M2700 1690 l0 -70 44 0 c81 0 125 33 112 85 -11 42 -33 55 -97 55
l-59 0 0 -70z"/>
<path d="M3205 1697 c-8 -21 -22 -53 -30 -73 -8 -20 -15 -38 -15 -40 0 -2 27
-4 60 -4 33 0 60 2 60 5 0 8 -50 139 -55 143 -3 3 -12 -11 -20 -31z"/>
<path d="M2773 1210 c-29 -12 -45 -44 -37 -75 17 -68 124 -55 124 16 0 30 -9
43 -37 58 -25 13 -21 12 -50 1z"/>
</g>
</svg>
