<?xml version="1.0" standalone="no"?>
<!DOCTYPE svg PUBLIC "-//W3C//DTD SVG 20010904//EN"
 "http://www.w3.org/TR/2001/REC-SVG-20010904/DTD/svg10.dtd">
<svg version="1.0" xmlns="http://www.w3.org/2000/svg"
 width="500.000000pt" height="500.000000pt" viewBox="0 0 500.000000 500.000000"
 preserveAspectRatio="xMidYMid meet">

<g transform="translate(0.000000,500.000000) scale(0.100000,-0.100000)"
fill="#000000" stroke="none">
<path d="M3213 3815 c0 -7 6 -11 14 -8 7 3 13 0 13 -5 0 -6 7 -18 16 -26 14
-15 13 -16 -6 -16 -12 0 -18 -4 -15 -10 3 -5 16 -10 28 -10 20 -1 20 -2 5 -11
-10 -5 -18 -17 -18 -26 0 -14 2 -14 24 1 l25 16 -14 -27 c-10 -18 -11 -31 -4
-39 7 -8 6 -15 -2 -20 -8 -5 -10 -3 -4 7 6 11 5 11 -6 -1 -8 -8 -21 -20 -29
-27 -13 -11 -13 -12 3 -7 9 3 17 2 17 -4 0 -6 -5 -12 -10 -14 -7 -2 -6 -10 3
-21 11 -17 13 -15 12 17 -1 20 1 33 4 30 3 -3 6 -32 6 -64 0 -33 -3 -54 -7
-47 -8 12 -14 -75 -10 -143 1 -26 -1 -31 -8 -20 -8 13 -10 12 -10 -2 0 -10 8
-18 18 -19 13 0 12 -2 -5 -9 -13 -5 -22 -17 -22 -27 1 -17 2 -17 6 0 2 9 8 15
13 12 5 -3 7 -13 4 -23 -3 -9 2 -6 11 8 l16 25 -7 -25 c-3 -14 -10 -29 -15
-34 -12 -13 -11 -53 1 -61 6 -4 9 -14 8 -23 -2 -10 3 -16 10 -14 8 1 11 -2 7
-8 -3 -6 -10 -8 -15 -5 -4 3 -10 -2 -14 -10 -8 -22 -25 -18 -23 5 1 11 7 18
13 16 7 -3 10 2 7 13 -4 16 -7 15 -33 -7 -23 -20 -26 -28 -18 -42 17 -27 46
-42 54 -28 4 6 3 8 -4 4 -6 -3 -13 -2 -17 4 -3 5 1 10 9 10 9 0 16 5 16 11 0
5 4 8 9 5 5 -3 7 -15 4 -26 -6 -23 6 -26 27 -7 8 6 6 2 -4 -10 -18 -22 -14
-49 6 -37 7 4 8 2 4 -5 -10 -15 -36 4 -36 26 0 8 -4 11 -10 8 -6 -4 2 -21 17
-40 27 -33 28 -34 36 -13 4 12 9 33 11 47 2 14 6 33 10 42 4 9 8 27 10 41 1
13 5 28 8 33 3 6 16 55 28 110 51 230 19 393 -95 493 -50 44 -72 55 -72 37z
m104 -127 c-3 -8 -6 -5 -6 6 -1 11 2 17 5 13 3 -3 4 -12 1 -19z m-40 -230 c-3
-8 -6 -5 -6 6 -1 11 2 17 5 13 3 -3 4 -12 1 -19z m0 -90 c0 -33 -2 -38 -8 -21
-6 18 -2 63 6 63 1 0 2 -19 2 -42z m3 -160 c0 -5 -4 -8 -10 -8 -5 0 -10 10
-10 23 0 18 2 19 10 7 5 -8 10 -18 10 -22z m17 -40 c-3 -8 -6 -5 -6 6 -1 11 2
17 5 13 3 -3 4 -12 1 -19z m-71 -47 c0 -15 -3 -17 -13 -9 -7 6 -10 14 -7 19 9
15 20 10 20 -10z"/>
<path d="M2421 3796 c11 -12 69 -25 69 -15 0 5 -9 9 -19 9 -11 0 -28 3 -38 7
-10 3 -15 3 -12 -1z"/>
<path d="M2495 3770 c-3 -5 -13 -6 -22 -3 -11 4 -14 3 -9 -5 5 -8 -1 -12 -16
-13 -22 -1 -22 -1 -2 -7 19 -6 20 -10 8 -37 -11 -26 -20 -20 -14 10 1 6 -2 7
-6 2 -10 -10 -13 -47 -4 -52 4 -2 22 12 41 32 19 20 29 33 23 30 -6 -3 -11 0
-11 8 0 11 4 12 14 3 10 -8 18 -6 33 7 16 14 17 20 8 27 -17 11 -36 10 -43 -2z"/>
<path d="M3220 3236 c0 -8 4 -17 9 -20 5 -4 7 3 4 14 -6 23 -13 26 -13 6z"/>
<path d="M2610 3076 c0 -4 5 -16 10 -26 9 -17 8 -18 -7 -13 -17 7 -17 5 1 -21
10 -16 14 -26 8 -22 -5 3 -12 -8 -14 -26 l-5 -32 18 23 c23 28 24 78 4 105 -8
11 -15 16 -15 12z"/>
<path d="M1756 2983 c-8 -21 -1 -27 17 -16 12 6 13 10 2 20 -10 10 -15 9 -19
-4z"/>
<path d="M2601 2299 c-18 -16 -44 -37 -58 -46 -13 -9 -20 -19 -16 -23 13 -12
300 -79 383 -90 109 -14 122 -12 60 11 -30 11 -64 19 -75 18 -36 -2 -46 1 -39
12 4 8 9 7 15 -2 5 -8 9 -9 9 -3 0 18 -23 32 -60 39 -54 9 -71 16 -65 26 4 5
3 10 -2 10 -76 12 -88 16 -86 26 1 5 -16 9 -38 7 -36 -2 -39 -1 -22 11 10 7
20 12 24 10 3 -2 6 2 6 10 0 19 3 20 -36 -16z m256 -105 c-3 -3 -12 -4 -19 -1
-8 3 -5 6 6 6 11 1 17 -2 13 -5z"/>
<path d="M1250 1630 l0 -210 45 0 45 0 0 129 c0 122 1 130 19 128 11 0 17 -5
15 -9 -3 -4 36 -62 86 -128 l91 -121 42 3 42 3 2 208 2 207 -49 0 -49 0 -3
-130 -3 -130 -98 130 -97 130 -45 0 -45 0 0 -210z"/>
<path d="M1730 1630 l0 -210 165 0 165 0 0 40 0 40 -114 0 -114 0 -4 45 -3 44
100 3 100 3 3 38 3 37 -100 0 -101 0 0 45 0 45 110 0 110 0 0 40 0 40 -160 0
-160 0 0 -210z"/>
<path d="M2130 1697 c0 -131 2 -148 23 -187 64 -122 273 -122 335 0 20 40 22
59 22 187 l0 143 -50 0 -50 0 0 -141 0 -141 -29 -29 c-20 -20 -39 -29 -61 -29
-22 0 -41 9 -61 29 l-29 29 0 141 0 141 -50 0 -50 0 0 -143z"/>
<path d="M2600 1630 l0 -210 50 0 50 0 0 60 0 60 45 0 c31 0 47 -5 51 -15 4
-8 11 -12 17 -8 6 3 7 1 3 -5 -4 -7 3 -30 15 -52 22 -39 24 -40 76 -40 29 0
53 2 53 6 0 3 -18 32 -40 64 -22 32 -40 61 -40 65 0 3 14 18 32 34 27 24 32
36 36 88 9 125 -45 163 -234 163 l-114 0 0 -210z m244 108 c22 -31 20 -74 -4
-98 -16 -16 -33 -20 -80 -20 l-60 0 0 70 0 70 64 0 c56 0 67 -3 80 -22z"/>
<path d="M3082 1630 l-90 -210 50 0 c48 0 50 1 66 40 l17 40 96 0 97 0 16 -40
c16 -39 17 -40 66 -40 27 0 50 3 50 8 0 4 -39 98 -86 210 l-86 202 -53 0 -52
0 -91 -210z m176 28 l30 -78 -64 0 c-35 0 -64 2 -64 5 0 7 49 135 56 146 8 14
8 14 42 -73z"/>
<path d="M3500 1630 l0 -210 140 0 140 0 0 45 0 45 -90 0 -90 0 0 165 0 165
-50 0 -50 0 0 -210z"/>
<path d="M1828 1150 c25 -63 40 -90 51 -88 8 2 27 33 42 70 40 98 42 108 27
108 -8 0 -24 -27 -37 -65 -13 -36 -27 -67 -31 -70 -4 -2 -18 26 -32 63 -15 40
-31 68 -41 70 -12 3 -8 -15 21 -88z"/>
<path d="M2090 1150 c0 -73 3 -90 15 -90 12 0 15 17 15 90 0 73 -3 90 -15 90
-12 0 -15 -17 -15 -90z"/>
<path d="M2287 1227 c-12 -8 -18 -22 -15 -37 3 -23 10 -29 63 -52 42 -19 40
-43 -5 -42 -19 0 -41 2 -49 5 -25 8 -22 -17 4 -29 37 -17 69 -15 95 6 36 29
21 65 -35 86 -25 10 -45 24 -45 31 0 20 33 27 64 15 24 -9 27 -8 24 7 -4 23
-75 30 -101 10z"/>
<path d="M2540 1150 c0 -73 3 -90 15 -90 12 0 15 17 15 90 0 73 -3 90 -15 90
-12 0 -15 -17 -15 -90z"/>
<path d="M2737 1220 c-68 -54 -24 -160 67 -160 13 0 38 12 55 26 41 34 44 92
6 129 -31 32 -91 34 -128 5z m94 -11 c68 -36 16 -147 -55 -119 -49 18 -59 68
-21 105 26 27 46 31 76 14z"/>
<path d="M3030 1150 c0 -73 3 -90 15 -90 12 0 15 14 15 66 l0 67 50 -67 c70
-91 80 -88 80 24 0 72 -3 90 -15 90 -10 0 -15 -16 -17 -62 l-3 -63 -48 63
c-67 87 -77 83 -77 -28z"/>
</g>
</svg>
